<svg width="40" height="40" viewBox="0 0 40 40" fill="none" xmlns="http://www.w3.org/2000/svg">
<rect width="40" height="40" fill="white"/>
<path d="M16.6078 35.0288H16.5522L9.53955 34.561H9.42824L3.64004 34.2011C3.27828 34.1652 3 33.7693 3 33.2655L4.14094 5.19648C4.16877 4.76464 4.44705 4.40479 4.80881 4.40479H4.86447L10.6248 4.76464C10.9866 4.80063 11.2649 5.19648 11.2649 5.70028L10.4579 25.5645L16.9418 25.9963C17.3314 26.0323 17.6096 26.4642 17.6096 26.932L17.2757 34.2011C17.2479 34.633 16.9696 35.0288 16.6078 35.0288Z" fill="black"/>
<path d="M23.2327 35.8765L20.2911 35.0616C19.7086 34.9003 19.2421 34.5465 19.1961 33.4675L18.7928 8.99851C18.7915 8.43694 18.8488 8.00382 18.9499 7.63896C19.1087 7.0656 19.3845 6.74915 19.7771 6.57728C20.6349 6.19755 25.2299 4.43978 25.8416 4.60921C26.2784 4.73022 26.4686 5.17576 26.4698 5.73733L26.1655 19.5153C26.1516 19.7921 26.2101 19.9205 26.2683 19.9367C26.3557 19.9609 26.4428 19.8728 26.6168 19.5842C28.8057 15.6446 32.5301 8.42626 32.9794 7.59664C33.3418 6.96745 33.7197 6.73539 34.0983 6.84027C34.3022 6.89674 34.4916 7.00534 34.6813 7.22625L37.9921 10.4444C38.5609 10.9948 38.6786 11.5886 38.4765 12.3184C38.2455 13.1523 29.8728 30.925 24.7599 35.4577C24.3532 35.794 23.757 36.0217 23.2327 35.8765Z" fill="black"/>
</svg>
