<svg width="172" height="109" viewBox="0 0 172 109" fill="none" xmlns="http://www.w3.org/2000/svg">
<path d="M31.67 4.74248C33.7296 3.87638 35.6279 3.45702 37.4122 3.42705C40.1265 3.38161 42.2901 4.23821 44.0479 5.2874C44.9078 5.80064 45.6799 6.36513 46.3526 6.87627C47.0686 7.42032 47.5997 7.84454 48.172 8.25127C49.3011 9.05382 49.9342 9.28435 50.4542 9.2835C51.9669 9.2813 53.1954 10.5043 53.1983 12.0149C53.2007 13.5259 51.9751 14.7526 50.462 14.7552C48.1582 14.7588 46.338 13.6661 44.9933 12.7103C44.3286 12.2378 43.615 11.674 43.0343 11.2327C42.4105 10.7588 41.8311 10.3406 41.2364 9.98564C40.0842 9.29793 38.9227 8.87506 37.505 8.89873C36.3788 8.9176 34.9251 9.22513 33.0294 10.1341L33.0792 10.3304C33.5689 11.8847 33.7388 13.523 33.5714 15.1448C33.5598 15.2571 33.5422 15.369 33.5274 15.4808C36.8636 15.4055 40.3774 15.8255 43.6241 17.4017C48.1387 19.5934 51.6851 23.7822 53.7257 30.7024L54.1134 32.1224C55.1077 35.9928 54.7518 40.0686 53.1329 43.6878C54.9107 46.9116 55.5748 50.6502 54.9894 54.3157C54.861 55.1189 54.3814 55.8248 53.6808 56.2396L53.6397 56.264C53.6397 56.264 53.6812 56.2351 53.6808 56.2396L53.671 56.2464C53.668 56.2481 53.6634 56.2486 53.6603 56.2503C53.6537 56.2541 53.6466 56.26 53.6397 56.264C53.6258 56.2719 53.6103 56.2799 53.5948 56.2884C53.5633 56.3057 53.5282 56.3248 53.4903 56.344C53.4141 56.3827 53.3244 56.4251 53.2218 56.469C53.0156 56.5573 52.7555 56.6518 52.4395 56.7405C51.8055 56.9186 50.9529 57.0698 49.8497 57.1009C47.8451 57.1572 45.0224 56.8181 41.1524 55.5481C35.696 58.3836 29.6495 59.9034 23.4991 59.9866C20.6922 62.9361 18.3668 64.5697 16.5743 65.4681C15.5878 65.9625 14.7651 66.2323 14.1222 66.3753C13.802 66.4465 13.5291 66.4863 13.3058 66.5061C13.1942 66.516 13.0945 66.5218 13.0089 66.5237C12.9662 66.5247 12.9268 66.5241 12.8907 66.5237C12.8727 66.5236 12.8553 66.5232 12.839 66.5228C12.831 66.5225 12.8231 66.5221 12.8155 66.5218C12.8118 66.5216 12.8075 66.5228 12.8038 66.5228L12.7931 66.5208C11.9793 66.4868 11.2225 66.0923 10.7286 65.4456C8.47484 62.4945 7.28764 58.8891 7.32431 55.2093C4.20365 52.8043 1.96422 49.4117 0.99326 45.5638L0.659275 44.1214C-0.835383 37.0222 0.291164 31.6295 3.23154 27.5589C5.3405 24.6395 8.23257 22.6234 11.2091 21.138C11.1414 21.0436 11.0709 20.9512 11.006 20.8548C10.0883 19.493 9.4636 17.9562 9.16611 16.3431L6.58896 6.12139C6.55492 5.98638 6.53477 5.85061 6.52158 5.71611H12.1378L14.4923 15.054C14.5097 15.123 14.5243 15.1928 14.5362 15.263C14.6905 16.1702 15.0365 17.0357 15.5509 17.7991C16.0652 18.5623 16.7364 19.2084 17.5196 19.6927C18.4082 20.2419 18.9069 21.2479 18.8048 22.2864C18.7022 23.3253 18.0173 24.2158 17.0382 24.5813C13.1294 26.0403 9.74198 27.9011 7.67685 30.7591C5.71362 33.4767 4.626 37.5579 6.30771 44.2278C7.07075 47.2511 8.96982 49.8648 11.6095 51.5296C12.4958 52.0888 12.9839 53.1052 12.8683 54.1458C12.6199 56.3808 13.0599 58.6216 14.1007 60.5843C14.1057 60.5818 14.1123 60.579 14.1173 60.5765C15.3408 59.963 17.4272 58.5653 20.2696 55.4163C20.8007 54.8279 21.5625 54.4978 22.3556 54.512C28.3744 54.62 34.3137 53.1256 39.5636 50.1839C40.2552 49.7965 41.0816 49.7275 41.8282 49.9944C45.8267 51.4243 48.328 51.6687 49.6964 51.6302C49.7028 51.63 49.7095 51.6294 49.7159 51.6292C49.7019 49.4084 49.0238 47.2263 47.7452 45.3753C47.1501 44.5135 47.0989 43.3875 47.6144 42.4759C49.1609 39.7412 49.5877 36.5145 48.8038 33.4729L48.7999 33.4583C47.1337 26.8499 44.2529 23.7908 41.2286 22.3226C38.0432 20.7762 34.1612 20.7196 30.0001 21.2337C28.9694 21.361 27.9533 20.8966 27.379 20.0325C26.8048 19.1682 26.7701 18.0526 27.2882 17.1536C27.7428 16.3648 28.0267 15.4887 28.1202 14.5833C28.2136 13.6781 28.115 12.7625 27.8312 11.8978C27.8112 11.837 27.7921 11.7751 27.7765 11.7132L25.8634 4.12627C26.5991 3.75091 27.2538 3.33559 27.797 2.90166C28.7191 2.10806 29.6367 1.23816 30.5499 0.301074L31.67 4.74248Z" fill="black"/>
<path d="M98.3615 102.591C98.3615 103.807 98.0655 104.879 97.4735 105.807C96.8975 106.735 96.0735 107.455 95.0015 107.967C93.9295 108.479 92.6975 108.735 91.3055 108.735C90.0735 108.735 88.9615 108.535 87.9695 108.135C86.9935 107.751 86.2015 107.199 85.5935 106.479C85.0015 105.775 84.6495 104.959 84.5375 104.031H87.1295C87.4495 104.735 87.9775 105.287 88.7135 105.687C89.4495 106.087 90.3135 106.287 91.3055 106.287C92.6655 106.287 93.7375 105.951 94.5215 105.279C95.3215 104.623 95.7215 103.727 95.7215 102.591V101.055H95.3855C95.0335 101.599 94.4575 102.039 93.6575 102.375C92.8735 102.711 92.0095 102.879 91.0655 102.879C89.7695 102.879 88.6255 102.591 87.6335 102.015C86.6575 101.423 85.8975 100.599 85.3535 99.5425C84.8095 98.4865 84.5375 97.2625 84.5375 95.8705C84.5375 94.4625 84.8095 93.2225 85.3535 92.1505C85.8975 91.0785 86.6575 90.2465 87.6335 89.6545C88.6255 89.0625 89.7695 88.7665 91.0655 88.7665C92.0095 88.7665 92.8735 88.9425 93.6575 89.2945C94.4575 89.6465 95.0335 90.1105 95.3855 90.6865H95.7215V89.1505H98.3615V102.591ZM87.2255 95.8705C87.2255 97.2945 87.6095 98.4225 88.3775 99.2545C89.1455 100.071 90.2015 100.479 91.5455 100.479C92.8895 100.479 93.9455 100.071 94.7135 99.2545C95.4815 98.4225 95.8655 97.2945 95.8655 95.8705C95.8655 94.4465 95.4815 93.3265 94.7135 92.5105C93.9455 91.6785 92.8895 91.2625 91.5455 91.2625C90.2015 91.2625 89.1455 91.6785 88.3775 92.5105C87.6095 93.3265 87.2255 94.4465 87.2255 95.8705Z" fill="black"/>
<path d="M105.621 89.1505V103.551H102.981V89.1505H105.621ZM104.301 86.9425C103.693 86.9425 103.205 86.7745 102.837 86.4385C102.469 86.0865 102.285 85.6305 102.285 85.0705C102.285 84.5105 102.469 84.0625 102.837 83.7265C103.205 83.3745 103.693 83.1985 104.301 83.1985C104.909 83.1985 105.397 83.3745 105.765 83.7265C106.133 84.0625 106.317 84.5105 106.317 85.0705C106.317 85.6305 106.133 86.0865 105.765 86.4385C105.397 86.7745 104.909 86.9425 104.301 86.9425Z" fill="black"/>
<path d="M116.127 103.935C114.671 103.935 113.543 103.471 112.743 102.543C111.959 101.599 111.567 100.255 111.567 98.5105V91.6465H108.687V89.1505H111.567V85.4065H114.207V89.1505H120.207V91.6465H114.207V98.5105C114.207 99.4865 114.375 100.223 114.711 100.719C115.063 101.199 115.567 101.439 116.223 101.439C116.943 101.439 117.519 101.199 117.951 100.719C118.383 100.239 118.687 99.5025 118.863 98.5105H121.215C121.151 100.255 120.679 101.599 119.799 102.543C118.919 103.471 117.695 103.935 116.127 103.935Z" fill="black"/>
<path d="M165.008 103.935C164.064 103.935 163.2 103.767 162.416 103.431C161.632 103.095 160.992 102.623 160.496 102.015H160.16V103.551H157.52V83.1985H160.16V90.6865H160.496C160.992 90.0785 161.632 89.6065 162.416 89.2705C163.2 88.9345 164.064 88.7665 165.008 88.7665C166.32 88.7665 167.472 89.0865 168.464 89.7265C169.472 90.3505 170.248 91.2385 170.792 92.3905C171.352 93.5265 171.632 94.8465 171.632 96.3505C171.632 97.8545 171.352 99.1825 170.792 100.335C170.248 101.471 169.472 102.359 168.464 102.999C167.472 103.623 166.32 103.935 165.008 103.935ZM160.064 96.3505C160.064 97.9185 160.464 99.1585 161.264 100.071C162.064 100.983 163.152 101.439 164.528 101.439C165.904 101.439 166.992 100.983 167.792 100.071C168.592 99.1585 168.992 97.9185 168.992 96.3505C168.992 94.7825 168.592 93.5425 167.792 92.6305C166.992 91.7185 165.904 91.2625 164.528 91.2625C163.152 91.2625 162.064 91.7185 161.264 92.6305C160.464 93.5425 160.064 94.7825 160.064 96.3505Z" fill="black"/>
<path d="M74.2518 33.282C74.5627 32.6656 75.3142 32.4174 75.9305 32.7283C76.5469 33.0391 76.794 33.7906 76.4833 34.407L72.7118 41.8826C79.9548 40.0145 89.8161 39.3022 98.7499 42.5711C103.848 44.4364 108.644 47.6003 112.446 52.574C116.246 57.5442 119.007 64.2592 120.137 73.158C120.223 73.8428 119.738 74.4685 119.054 74.5555C118.369 74.6422 117.743 74.1572 117.656 73.4724C116.571 64.9264 113.945 58.6495 110.461 54.0926C106.979 49.5391 102.595 46.6397 97.8915 44.9187C89.7106 41.9253 80.5679 42.5026 73.7128 44.2088L80.9091 47.8396C81.5255 48.1505 81.7736 48.9019 81.4628 49.5183C81.1519 50.1347 80.4004 50.3818 79.7841 50.0711L69.7391 45.0057C69.1229 44.6948 68.8749 43.9433 69.1854 43.3269L74.2518 33.282Z" fill="black"/>
<path fill-rule="evenodd" clip-rule="evenodd" d="M42.2458 94.8865C42.2458 93.7345 42.5178 92.8465 43.0618 92.2225C43.6058 91.5825 44.3738 91.2625 45.3658 91.2625C46.3578 91.2625 47.1258 91.5745 47.6698 92.1985C48.2138 92.8225 48.4858 93.7185 48.4858 94.8865V103.551H51.1258V94.8865C51.1258 93.7345 51.3978 92.8465 51.9418 92.2225C52.4858 91.5825 53.2538 91.2625 54.2458 91.2625C55.2378 91.2625 56.0058 91.5745 56.5498 92.1985C57.0938 92.8225 57.3658 93.7185 57.3658 94.8865V103.551H60.0058V94.1665C60.0058 93.0945 59.7818 92.1505 59.3338 91.3345C58.9018 90.5185 58.2858 89.8865 57.4858 89.4385C56.6858 88.9905 55.7658 88.7665 54.7258 88.7665C53.8778 88.7665 53.1098 88.9345 52.4218 89.2705C51.7338 89.5905 51.2058 90.0305 50.8378 90.5905H50.051C49.7047 90.1235 49.2789 89.7395 48.7738 89.4385C48.0378 88.9905 47.1818 88.7665 46.2058 88.7665C45.3738 88.7665 44.6378 88.9025 43.9978 89.1745C43.3738 89.4465 42.9018 89.8385 42.5818 90.3505H42.2458V89.1505H39.6058V103.551H42.2458V94.8865Z" fill="black"/>
<path d="M69.5253 101.268L65.3392 89.1505H62.4592L67.0672 102.351H69.181L68.3872 104.847C68.1952 105.375 67.9712 105.751 67.7152 105.975C67.4592 106.215 67.1232 106.335 66.7072 106.335C66.3072 106.335 65.9792 106.207 65.7232 105.951C65.4832 105.711 65.2672 105.327 65.0752 104.799H62.6272C62.6912 105.631 62.8912 106.343 63.2272 106.935C63.5792 107.527 64.0512 107.975 64.6432 108.279C65.2352 108.583 65.9392 108.735 66.7552 108.735C67.3792 108.735 67.9392 108.623 68.4352 108.399C68.9472 108.175 69.3872 107.839 69.7552 107.391C70.1392 106.943 70.4592 106.383 70.7152 105.711L76.0432 89.1505H73.3792L69.5253 101.268Z" fill="black"/>
<path d="M126.925 83.1985V90.3505H127.261C127.693 89.8385 128.253 89.4465 128.941 89.1745C129.645 88.9025 130.413 88.7665 131.245 88.7665C132.285 88.7665 133.205 89.0065 134.005 89.4865C134.805 89.9665 135.421 90.6465 135.853 91.5265C136.301 92.3905 136.525 93.3905 136.525 94.5265V103.551H133.885V95.2465C133.885 93.9665 133.581 92.9825 132.973 92.2945C132.381 91.6065 131.525 91.2625 130.405 91.2625C129.285 91.2625 128.421 91.6065 127.813 92.2945C127.221 92.9825 126.925 93.9665 126.925 95.2465V103.551H124.285V83.1985H126.925Z" fill="black"/>
<path d="M150.263 97.4545C150.263 98.7345 149.959 99.7185 149.351 100.407C148.759 101.095 147.903 101.439 146.783 101.439C145.663 101.439 144.799 101.095 144.191 100.407C143.599 99.7185 143.303 98.7345 143.303 97.4545V89.1505H140.663V98.1745C140.663 99.3105 140.879 100.319 141.311 101.199C141.759 102.063 142.383 102.735 143.183 103.215C143.983 103.695 144.903 103.935 145.943 103.935C146.775 103.935 147.535 103.799 148.223 103.527C148.927 103.255 149.495 102.863 149.927 102.351H150.263V103.551H152.903V89.1505H150.263V97.4545Z" fill="black"/>
</svg>
