<svg width="213" height="95" viewBox="0 0 213 95" fill="none" xmlns="http://www.w3.org/2000/svg">
<path d="M27.3994 92.188V81.2437C27.3994 79.7325 28.6269 78.5067 30.1401 78.5067C31.6533 78.5067 32.8808 79.7325 32.8808 81.2437V92.188C32.8808 93.6992 31.6533 94.925 30.1401 94.925C28.6269 94.925 27.3994 93.6992 27.3994 92.188ZM16.5857 74.4928C17.6557 73.4242 19.3897 73.4242 20.4597 74.4928C21.5297 75.5614 21.5297 77.2931 20.4597 78.3617L12.7059 86.1051C11.6359 87.1737 9.9018 87.1737 8.8318 86.1051C7.7618 85.0365 7.7618 83.3048 8.8318 82.2362L16.5857 74.4928ZM39.8205 74.4928C40.8905 73.4242 42.6245 73.4242 43.6945 74.4928L51.4482 82.2362C52.5182 83.3048 52.5182 85.0365 51.4482 86.1051C50.3782 87.1737 48.6442 87.1737 47.5742 86.1051L39.8205 78.3617C38.7505 77.2931 38.7505 75.5614 39.8205 74.4928ZM13.6997 62.0885C15.2129 62.0885 16.4404 63.3143 16.4404 64.8255C16.4404 66.3367 15.2129 67.5625 13.6997 67.5625H2.7407C1.2275 67.5625 0 66.3367 0 64.8255C0 63.3143 1.2275 62.0885 2.7407 62.0885H13.6997ZM57.5392 62.0885C59.0522 62.0885 60.2802 63.3143 60.2802 64.8255C60.2802 66.3367 59.0522 67.5625 57.5392 67.5625H46.5802C45.0672 67.5625 43.8398 66.3367 43.8398 64.8255C43.8398 63.3143 45.0672 62.0885 46.5802 62.0885H57.5392ZM8.8318 43.5459C9.9018 42.4773 11.6359 42.4773 12.7059 43.5459L20.4597 51.2893C21.5297 52.3579 21.5297 54.0896 20.4597 55.1581C19.3897 56.2267 17.6557 56.2267 16.5857 55.1581L8.8318 47.4147C7.7618 46.3461 7.7618 44.6144 8.8318 43.5459ZM47.5742 43.5459C48.6442 42.4773 50.3782 42.4773 51.4482 43.5459C52.5182 44.6144 52.5182 46.3461 51.4482 47.4147L43.6945 55.1581C42.6245 56.2267 40.8905 56.2267 39.8205 55.1581C38.7505 54.0896 38.7505 52.3579 39.8205 51.2893L47.5742 43.5459ZM27.3994 48.4072V37.463C27.3994 35.9518 28.6269 34.726 30.1401 34.726C31.6533 34.726 32.8808 35.9518 32.8808 37.463V48.4072C32.8808 49.9184 31.6533 51.1442 30.1401 51.1442C28.6269 51.1442 27.3994 49.9184 27.3994 48.4072Z" fill="black"/>
<path d="M81.4192 19.392C81.4192 20.608 81.1232 21.68 80.5312 22.608C79.9552 23.536 79.1312 24.256 78.0592 24.768C76.9872 25.28 75.7552 25.536 74.3632 25.536C73.1312 25.536 72.0192 25.336 71.0272 24.936C70.0512 24.552 69.2592 24 68.6512 23.28C68.0592 22.576 67.7072 21.76 67.5952 20.832H70.1872C70.5072 21.536 71.0352 22.088 71.7712 22.488C72.5072 22.888 73.3712 23.088 74.3632 23.088C75.7232 23.088 76.7952 22.752 77.5792 22.08C78.3792 21.424 78.7792 20.528 78.7792 19.392V17.856H78.4432C78.0912 18.4 77.5152 18.84 76.7152 19.176C75.9312 19.512 75.0672 19.68 74.1232 19.68C72.8272 19.68 71.6832 19.392 70.6912 18.816C69.7152 18.224 68.9552 17.4 68.4112 16.344C67.8672 15.288 67.5952 14.064 67.5952 12.672C67.5952 11.264 67.8672 10.024 68.4112 8.952C68.9552 7.88 69.7152 7.048 70.6912 6.456C71.6832 5.864 72.8272 5.568 74.1232 5.568C75.0672 5.568 75.9312 5.744 76.7152 6.096C77.5152 6.448 78.0912 6.912 78.4432 7.488H78.7792V5.952H81.4192V19.392ZM70.2832 12.672C70.2832 14.096 70.6672 15.224 71.4352 16.056C72.2032 16.872 73.2592 17.28 74.6032 17.28C75.9472 17.28 77.0032 16.872 77.7712 16.056C78.5392 15.224 78.9232 14.096 78.9232 12.672C78.9232 11.248 78.5392 10.128 77.7712 9.312C77.0032 8.48 75.9472 8.064 74.6032 8.064C73.2592 8.064 72.2032 8.48 71.4352 9.312C70.6672 10.128 70.2832 11.248 70.2832 12.672Z" fill="black"/>
<path d="M120.601 15.936C120.841 16.672 121.297 17.24 121.969 17.64C122.657 18.04 123.537 18.24 124.609 18.24C125.729 18.24 126.569 18.072 127.129 17.736C127.689 17.4 127.969 16.896 127.969 16.224C127.969 15.808 127.737 15.464 127.273 15.192C126.825 14.92 126.145 14.72 125.233 14.592L123.169 14.304C121.473 14.064 120.233 13.616 119.449 12.96C118.665 12.288 118.273 11.344 118.273 10.128C118.273 9.168 118.521 8.352 119.017 7.68C119.513 6.992 120.225 6.472 121.153 6.12C122.097 5.752 123.233 5.568 124.561 5.568C125.873 5.568 127.009 5.768 127.969 6.168C128.945 6.568 129.697 7.152 130.225 7.92C130.753 8.688 131.041 9.6 131.089 10.656H128.689C128.449 9.824 127.977 9.184 127.273 8.736C126.569 8.288 125.649 8.064 124.513 8.064C123.329 8.064 122.433 8.232 121.825 8.568C121.217 8.904 120.913 9.408 120.913 10.08C120.913 10.496 121.137 10.84 121.585 11.112C122.049 11.384 122.737 11.584 123.649 11.712L125.713 12C127.409 12.24 128.649 12.696 129.433 13.368C130.217 14.024 130.609 14.96 130.609 16.176C130.609 17.136 130.369 17.96 129.889 18.648C129.409 19.32 128.713 19.84 127.801 20.208C126.905 20.56 125.825 20.736 124.561 20.736C123.265 20.736 122.145 20.552 121.201 20.184C120.273 19.8 119.545 19.248 119.017 18.528C118.505 17.808 118.225 16.944 118.177 15.936H120.601Z" fill="black"/>
<path d="M140.411 20.736C138.955 20.736 137.827 20.272 137.027 19.344C136.243 18.4 135.851 17.056 135.851 15.312V8.448H132.971V5.952H135.851V2.208H138.491V5.952H144.491V8.448H138.491V15.312C138.491 16.288 138.659 17.024 138.995 17.52C139.347 18 139.851 18.24 140.507 18.24C141.227 18.24 141.803 18 142.235 17.52C142.667 17.04 142.971 16.304 143.147 15.312H145.499C145.435 17.056 144.963 18.4 144.083 19.344C143.203 20.272 141.979 20.736 140.411 20.736Z" fill="black"/>
<path d="M156.058 20.736C155.114 20.736 154.25 20.568 153.466 20.232C152.682 19.896 152.042 19.424 151.546 18.816H151.21V20.352H148.57V0H151.21V7.488H151.546C152.042 6.88 152.682 6.408 153.466 6.072C154.25 5.736 155.114 5.568 156.058 5.568C157.37 5.568 158.522 5.888 159.514 6.528C160.522 7.152 161.298 8.04 161.842 9.192C162.402 10.328 162.682 11.648 162.682 13.152C162.682 14.656 162.402 15.984 161.842 17.136C161.298 18.272 160.522 19.16 159.514 19.8C158.522 20.424 157.37 20.736 156.058 20.736ZM151.114 13.152C151.114 14.72 151.514 15.96 152.314 16.872C153.114 17.784 154.202 18.24 155.578 18.24C156.954 18.24 158.042 17.784 158.842 16.872C159.642 15.96 160.042 14.72 160.042 13.152C160.042 11.584 159.642 10.344 158.842 9.432C158.042 8.52 156.954 8.064 155.578 8.064C154.202 8.064 153.114 8.52 152.314 9.432C151.514 10.344 151.114 11.584 151.114 13.152Z" fill="black"/>
<path d="M172.481 20.736C171.041 20.736 169.769 20.424 168.665 19.8C167.577 19.16 166.729 18.272 166.121 17.136C165.529 15.984 165.233 14.656 165.233 13.152C165.233 11.648 165.529 10.328 166.121 9.192C166.729 8.04 167.577 7.152 168.665 6.528C169.769 5.888 171.041 5.568 172.481 5.568C173.921 5.568 175.185 5.888 176.273 6.528C177.377 7.152 178.225 8.04 178.817 9.192C179.425 10.328 179.729 11.648 179.729 13.152C179.729 14.656 179.425 15.984 178.817 17.136C178.225 18.272 177.377 19.16 176.273 19.8C175.185 20.424 173.921 20.736 172.481 20.736ZM172.481 18.24C173.425 18.24 174.241 18.04 174.929 17.64C175.633 17.224 176.169 16.632 176.537 15.864C176.905 15.096 177.089 14.192 177.089 13.152C177.089 12.112 176.905 11.208 176.537 10.44C176.169 9.672 175.633 9.088 174.929 8.688C174.241 8.272 173.425 8.064 172.481 8.064C171.537 8.064 170.713 8.272 170.009 8.688C169.321 9.088 168.793 9.672 168.425 10.44C168.057 11.208 167.873 12.112 167.873 13.152C167.873 14.192 168.057 15.096 168.425 15.864C168.793 16.632 169.321 17.224 170.009 17.64C170.713 18.04 171.537 18.24 172.481 18.24Z" fill="black"/>
<path d="M189.52 20.736C188.08 20.736 186.808 20.424 185.704 19.8C184.616 19.16 183.768 18.272 183.16 17.136C182.568 15.984 182.272 14.656 182.272 13.152C182.272 11.648 182.568 10.328 183.16 9.192C183.768 8.04 184.616 7.152 185.704 6.528C186.808 5.888 188.08 5.568 189.52 5.568C190.96 5.568 192.224 5.888 193.312 6.528C194.416 7.152 195.264 8.04 195.856 9.192C196.464 10.328 196.768 11.648 196.768 13.152C196.768 14.656 196.464 15.984 195.856 17.136C195.264 18.272 194.416 19.16 193.312 19.8C192.224 20.424 190.96 20.736 189.52 20.736ZM189.52 18.24C190.464 18.24 191.28 18.04 191.968 17.64C192.672 17.224 193.208 16.632 193.576 15.864C193.944 15.096 194.128 14.192 194.128 13.152C194.128 12.112 193.944 11.208 193.576 10.44C193.208 9.672 192.672 9.088 191.968 8.688C191.28 8.272 190.464 8.064 189.52 8.064C188.576 8.064 187.752 8.272 187.048 8.688C186.36 9.088 185.832 9.672 185.464 10.44C185.096 11.208 184.912 12.112 184.912 13.152C184.912 14.192 185.096 15.096 185.464 15.864C185.832 16.632 186.36 17.224 187.048 17.64C187.752 18.04 188.576 18.24 189.52 18.24Z" fill="black"/>
<path d="M120.543 38.8127C120.413 38.1514 119.772 37.7202 119.111 37.8499C118.449 37.9796 118.018 38.6206 118.148 39.2817C119.51 46.2312 118.783 55.8029 112.505 62.2924C106.558 68.4407 95.2606 72.1881 74.8395 67.769L81.6602 63.6241C82.2358 63.2742 82.4189 62.524 82.0692 61.9482C81.7192 61.3723 80.9682 61.1884 80.3922 61.5383L71.0058 67.2419C70.43 67.5919 70.2468 68.3429 70.5967 68.9187L76.301 78.3029C76.6511 78.8789 77.4021 79.0619 77.9781 78.7119C78.5536 78.3618 78.7368 77.6117 78.3871 77.036L74.1864 70.1237C95.0908 74.6727 107.456 71.0214 114.26 63.9883C121.311 56.698 121.986 46.1735 120.543 38.8127Z" fill="black"/>
<path d="M95.3985 14.256C95.3985 15.536 95.0945 16.52 94.4865 17.208C93.8945 17.896 93.0385 18.24 91.9185 18.24C90.7985 18.24 89.9345 17.896 89.3265 17.208C88.7345 16.52 88.4385 15.536 88.4385 14.256V5.952H85.7985V14.976C85.7985 16.112 86.0145 17.12 86.4465 18C86.8945 18.864 87.5185 19.536 88.3185 20.016C89.1185 20.496 90.0385 20.736 91.0785 20.736C91.9105 20.736 92.6705 20.6 93.3585 20.328C94.0625 20.056 94.6305 19.664 95.0625 19.152H95.3985V20.352H98.0385V5.952H95.3985V14.256Z" fill="black"/>
<path d="M104.267 14.016H115.256C115.288 13.568 115.304 13.224 115.304 12.984C115.304 11.48 115.032 10.168 114.488 9.048C113.96 7.928 113.192 7.072 112.184 6.48C111.192 5.872 110.024 5.568 108.68 5.568C107.288 5.568 106.056 5.88 104.984 6.504C103.912 7.112 103.08 7.984 102.488 9.12C101.912 10.256 101.624 11.56 101.624 13.032C101.624 14.616 101.912 15.992 102.488 17.16C103.064 18.312 103.888 19.2 104.96 19.824C106.048 20.432 107.328 20.736 108.8 20.736C109.952 20.736 110.992 20.552 111.92 20.184C112.848 19.8 113.64 19.256 114.296 18.552C114.952 17.832 115.432 16.96 115.736 15.936H113.24C112.808 16.672 112.2 17.248 111.416 17.664C110.648 18.08 109.776 18.288 108.8 18.288C107.344 18.288 106.216 17.832 105.416 16.92C104.781 16.1837 104.398 15.2157 104.267 14.016ZM104.337 11.664C104.51 10.7551 104.87 9.99513 105.416 9.384C106.216 8.472 107.304 8.016 108.68 8.016C110.008 8.016 111.032 8.456 111.752 9.336C112.26 9.94398 112.593 10.72 112.75 11.664H104.337Z" fill="black"/>
<path d="M202.983 0V12.4686L209.415 5.952H212.919L205.695 13.248L212.823 20.352H209.151L202.983 14.2051V20.352H200.343V0H202.983Z" fill="black"/>
</svg>
