<svg width="1174" height="763" viewBox="0 0 1174 763" fill="none" xmlns="http://www.w3.org/2000/svg">
<path d="M845.798 464.135H843.902C840.111 464.135 838.388 463.447 837.354 460.522L829.772 440.562C829.599 440.045 829.427 439.529 829.427 439.185C829.427 436.604 832.874 436.26 834.941 436.26C845.108 436.088 849.933 431.27 849.933 427.14C849.933 424.903 847.693 422.15 845.281 419.053L840.628 413.891C833.046 405.288 829.944 397.889 829.944 391.35C829.944 371.906 858.033 361.582 880.607 361.582C887.327 361.582 889.051 362.271 890.257 365.368L898.011 385.328C898.356 386.016 898.356 386.532 898.356 387.048C898.356 388.941 896.461 389.629 894.22 389.629H893.531C883.192 389.629 879.228 393.071 879.228 396.512C879.228 399.437 881.813 402.707 888.361 409.934C896.288 418.537 899.735 426.28 899.735 432.819C899.735 453.123 868.889 464.135 845.798 464.135Z" fill="black"/>
<path d="M828.121 416.17L811.575 432.733C809.203 435.045 807.088 435.994 804.955 435.31C803.315 434.784 792.672 428.481 786.944 418.152C776.99 419.841 767.497 418.967 759.129 416.285C731.729 407.502 714.843 378.958 723.323 352.581C729.643 332.921 752.701 309.048 785.188 319.46C793.392 322.09 800.852 326.469 806.356 331.305C807.709 330.474 809.344 330.456 811.313 331.087L812.133 331.35L839.728 342.905C843.889 344.6 844.353 347.098 843.721 349.064L843.457 349.884C836.368 364.056 829.488 377.574 826.012 388.387C822.852 398.217 822.392 405.84 826.748 410.308C828.125 411.653 829.614 413.215 829.087 414.853C828.982 415.181 828.66 415.62 828.121 416.17ZM783.891 388.801C784.768 384.384 785.915 379.691 787.547 374.612C788.917 370.352 790.503 365.982 792.411 361.172C791.496 357.264 787.803 353.55 783.045 352.025C772.708 348.712 763.752 356.865 761.066 365.221C758.117 374.396 761.988 384.311 772.653 387.729C775.77 388.728 779.591 389.23 783.891 388.801Z" fill="black"/>
<path d="M661.845 454.699L660.52 437.874C660.295 435.379 662.05 433.228 663.819 432.547L664.462 432.299C665.649 432.027 666.775 431.593 667.74 431.222C677.387 427.508 683.752 420.078 682.706 411.629C680.54 395.497 666.699 353.431 655.924 324.569C654.659 320.815 656.341 319.43 658.27 318.687C658.431 318.625 686.038 309.288 689.637 308.087C692.333 307.417 694.462 308.626 695.33 310.874C695.764 311.998 717.864 376.887 722.091 402.184C726.692 430.841 709.967 447.791 690.994 455.095C682.633 458.314 673.751 459.705 666.043 459.353C663.964 459.231 662.738 457.49 662.18 456.045C661.994 455.564 661.808 455.082 661.845 454.699ZM687.545 275.882C692.566 288.886 686.045 303.568 673.022 308.582C659.837 313.658 645.134 307.147 640.113 294.142C635.029 280.977 641.55 266.296 654.734 261.22C667.758 256.206 682.461 262.717 687.545 275.882Z" fill="black"/>
<path d="M607.472 447.429L605.514 446.766C568.464 434.237 558.425 402.683 566.827 377.911C574.732 354.606 599.508 335.734 636.722 348.319C677.199 362.007 666.778 398.632 664.954 404.01C662.411 411.507 657.21 416.651 646.474 416.654C637.919 416.668 625.233 414.376 616.635 411.832C614.024 410.949 613.594 409.532 613.605 407.355C613.47 401.315 613.962 389.673 614.183 389.021C614.792 387.228 616.374 386.855 618.661 387.083C627.812 387.998 629.065 388.058 629.839 385.777C630.336 384.31 629.004 378.046 622.149 375.728C614.315 373.078 605.464 377.716 602.037 387.82C598.112 399.391 602.178 415.299 622.58 422.199C623.722 422.585 625.028 423.027 626.226 423.25L626.552 423.361C628.837 424.133 631.114 426.538 630.174 429.309C629.622 430.939 621.619 440.586 617.292 445.299C615.101 447.465 612.206 449.029 607.472 447.429Z" fill="black"/>
<path d="M520.783 431.156H503.378C499.932 431.156 496.83 430.468 494.935 427.198L455.473 352.521C454.611 350.8 454.266 349.423 454.266 348.219C454.266 346.326 455.3 345.122 457.196 344.261C461.332 342.369 483.906 333.077 487.525 333.077C490.11 333.077 491.833 334.281 492.694 336.002L511.995 378.503C512.339 379.363 512.856 379.707 513.201 379.707C513.718 379.707 514.062 379.363 514.579 378.331C520.611 364.393 530.088 339.099 531.295 336.174C532.329 333.937 534.052 332.905 536.292 332.905C537.498 332.905 538.705 333.077 540.083 333.593L563.174 340.648C567.138 341.852 568.689 343.573 568.689 345.982C568.689 348.735 549.733 410.336 528.537 428.575C526.814 429.951 523.885 431.156 520.783 431.156Z" fill="black"/>
<path d="M400.631 435.457H398.736C394.945 435.457 393.221 434.769 392.187 431.844L384.605 411.884C384.433 411.368 384.261 410.852 384.261 410.508C384.261 407.927 387.707 407.582 389.775 407.582C399.942 407.41 404.767 402.592 404.767 398.463C404.767 396.226 402.527 393.473 400.114 390.376L395.462 385.214C387.879 376.61 384.778 369.211 384.778 362.673C384.778 343.229 412.866 332.905 435.44 332.905C442.161 332.905 443.884 333.593 445.09 336.69L452.845 356.65C453.19 357.339 453.19 357.855 453.19 358.371C453.19 360.264 451.294 360.952 449.054 360.952H448.365C438.025 360.952 434.062 364.393 434.062 367.835C434.062 370.76 436.647 374.029 443.195 381.256C451.122 389.859 454.568 397.603 454.568 404.141C454.568 424.445 423.722 435.457 400.631 435.457Z" fill="black"/>
<path d="M376.914 411.939L362.394 430.299C360.306 432.869 358.315 434.055 356.117 433.622C354.426 433.289 343.126 428.255 336.241 418.655C326.549 421.48 317.02 421.707 308.397 420.007C280.164 414.443 260.091 388.037 265.464 360.858C269.468 340.601 289.611 314.229 323.085 320.826C331.538 322.492 339.455 325.982 345.481 330.151C346.729 329.17 348.351 328.963 350.38 329.363L351.225 329.53L379.972 337.826C384.301 339.03 385.05 341.458 384.65 343.484L384.483 344.328C379.079 359.223 373.809 373.443 371.607 384.585C369.605 394.713 370.029 402.339 374.872 406.275C376.396 407.452 378.055 408.831 377.722 410.52C377.655 410.857 377.386 411.33 376.914 411.939ZM329.815 389.853C330.176 385.364 330.772 380.57 331.807 375.337C332.674 370.948 333.744 366.423 335.083 361.426C333.722 357.65 329.625 354.387 324.722 353.42C314.071 351.321 306.118 360.452 304.417 369.062C302.548 378.515 307.539 387.918 318.528 390.083C321.74 390.716 325.593 390.774 329.815 389.853Z" fill="black"/>
<path d="M261.187 428.333L226.741 431.951C224.855 432.149 223.151 430.771 222.952 428.889L208.224 289.081C208.008 287.027 209.388 285.325 211.273 285.127L245.72 281.509C247.605 281.311 249.309 282.689 249.526 284.742L264.254 424.551C264.453 426.433 263.072 428.135 261.187 428.333Z" fill="black"/>
<path d="M392.444 291.06C393.174 289.882 394.722 289.517 395.902 290.244C397.083 290.972 397.449 292.52 396.72 293.699L386.835 309.678L402.839 319.548C404.02 320.277 404.386 321.824 403.657 323.003C402.927 324.182 401.38 324.547 400.199 323.819L382.056 312.63C380.876 311.901 380.51 310.356 381.238 309.177L392.444 291.06ZM412.01 286.443C412.739 285.264 414.287 284.899 415.468 285.626L433.611 296.816C434.791 297.544 435.157 299.09 434.428 300.269L423.222 318.385C422.493 319.564 420.945 319.929 419.764 319.201C418.584 318.473 418.217 316.926 418.947 315.747L428.83 299.766L412.828 289.897C411.647 289.169 411.281 287.622 412.01 286.443Z" fill="black"/>
<path d="M535.996 506.651V521.051H533.356V506.651H535.996ZM542.236 512.387C542.236 511.219 541.964 510.323 541.42 509.699C540.876 509.075 540.108 508.763 539.116 508.763C538.124 508.763 537.356 509.083 536.812 509.723C536.268 510.347 535.996 511.235 535.996 512.387H534.556V507.851H536.332C536.652 507.339 537.124 506.947 537.748 506.675C538.388 506.403 539.124 506.267 539.956 506.267C540.932 506.267 541.788 506.491 542.524 506.939C543.276 507.387 543.852 508.019 544.252 508.835C544.668 509.651 544.876 510.595 544.876 511.667V521.051H542.236V512.387ZM551.116 512.387C551.116 511.219 550.844 510.323 550.3 509.699C549.756 509.075 548.988 508.763 547.996 508.763C547.004 508.763 546.236 509.083 545.692 509.723C545.148 510.347 544.876 511.235 544.876 512.387H543.436V508.091H544.588C544.956 507.531 545.484 507.091 546.172 506.771C546.86 506.435 547.628 506.267 548.476 506.267C549.516 506.267 550.436 506.491 551.236 506.939C552.036 507.387 552.652 508.019 553.084 508.835C553.532 509.651 553.756 510.595 553.756 511.667V521.051H551.116V512.387ZM559.089 506.651L563.649 519.851H560.817L556.209 506.651H559.089ZM564.465 523.211C564.209 523.883 563.889 524.443 563.505 524.891C563.137 525.339 562.697 525.675 562.185 525.899C561.689 526.123 561.129 526.235 560.505 526.235C559.689 526.235 558.985 526.083 558.393 525.779C557.801 525.475 557.329 525.027 556.977 524.435C556.641 523.843 556.441 523.131 556.377 522.299H558.825C559.017 522.827 559.233 523.211 559.473 523.451C559.729 523.707 560.057 523.835 560.457 523.835C560.873 523.835 561.209 523.715 561.465 523.475C561.721 523.251 561.945 522.875 562.137 522.347L567.129 506.651H569.793L564.465 523.211ZM592.111 520.091C592.111 521.307 591.815 522.379 591.223 523.307C590.647 524.235 589.823 524.955 588.751 525.467C587.679 525.979 586.447 526.235 585.055 526.235C583.823 526.235 582.711 526.035 581.719 525.635C580.743 525.251 579.951 524.699 579.343 523.979C578.751 523.275 578.399 522.459 578.287 521.531H580.879C581.199 522.235 581.727 522.787 582.463 523.187C583.199 523.587 584.063 523.787 585.055 523.787C586.415 523.787 587.487 523.451 588.271 522.779C589.071 522.123 589.471 521.227 589.471 520.091V518.555H589.135C588.783 519.099 588.207 519.539 587.407 519.875C586.623 520.211 585.759 520.379 584.815 520.379C583.519 520.379 582.375 520.091 581.383 519.515C580.407 518.923 579.647 518.099 579.103 517.043C578.559 515.987 578.287 514.763 578.287 513.371C578.287 511.963 578.559 510.723 579.103 509.651C579.647 508.579 580.407 507.747 581.383 507.155C582.375 506.563 583.519 506.267 584.815 506.267C585.759 506.267 586.623 506.443 587.407 506.795C588.207 507.147 588.783 507.611 589.135 508.187H589.471V506.651H592.111V520.091ZM580.975 513.371C580.975 514.795 581.359 515.923 582.127 516.755C582.895 517.571 583.951 517.979 585.295 517.979C586.639 517.979 587.695 517.571 588.463 516.755C589.231 515.923 589.615 514.795 589.615 513.371C589.615 511.947 589.231 510.827 588.463 510.011C587.695 509.179 586.639 508.763 585.295 508.763C583.951 508.763 582.895 509.179 582.127 510.011C581.359 510.827 580.975 511.947 580.975 513.371ZM599.371 506.651V521.051H596.731V506.651H599.371ZM598.051 504.443C597.443 504.443 596.955 504.275 596.587 503.939C596.219 503.587 596.035 503.131 596.035 502.571C596.035 502.011 596.219 501.563 596.587 501.227C596.955 500.875 597.443 500.699 598.051 500.699C598.659 500.699 599.147 500.875 599.515 501.227C599.883 501.563 600.067 502.011 600.067 502.571C600.067 503.131 599.883 503.587 599.515 503.939C599.147 504.275 598.659 504.443 598.051 504.443ZM609.877 521.435C608.421 521.435 607.293 520.971 606.493 520.043C605.709 519.099 605.317 517.755 605.317 516.011V509.147H602.437V506.651H605.317V502.907H607.957V506.651H613.957V509.147H607.957V516.011C607.957 516.987 608.125 517.723 608.461 518.219C608.813 518.699 609.317 518.939 609.973 518.939C610.693 518.939 611.269 518.699 611.701 518.219C612.133 517.739 612.437 517.003 612.613 516.011H614.965C614.901 517.755 614.429 519.099 613.549 520.043C612.669 520.971 611.445 521.435 609.877 521.435ZM620.675 500.699V521.051H618.035V500.699H620.675ZM627.635 512.747C627.635 511.467 627.331 510.483 626.723 509.795C626.131 509.107 625.275 508.763 624.155 508.763C623.035 508.763 622.171 509.107 621.563 509.795C620.971 510.483 620.675 511.467 620.675 512.747H619.955V507.851H621.011C621.443 507.339 622.003 506.947 622.691 506.675C623.395 506.403 624.163 506.267 624.995 506.267C626.035 506.267 626.955 506.507 627.755 506.987C628.555 507.467 629.171 508.147 629.603 509.027C630.051 509.891 630.275 510.891 630.275 512.027V521.051H627.635V512.747ZM644.012 521.051V506.651H646.652V521.051H644.012ZM637.052 514.955C637.052 516.235 637.348 517.219 637.94 517.907C638.548 518.595 639.412 518.939 640.532 518.939C641.652 518.939 642.508 518.595 643.1 517.907C643.708 517.219 644.012 516.235 644.012 514.955H644.732V519.851H643.676C643.244 520.363 642.676 520.755 641.972 521.027C641.284 521.299 640.524 521.435 639.692 521.435C638.652 521.435 637.732 521.195 636.932 520.715C636.132 520.235 635.508 519.563 635.06 518.699C634.628 517.819 634.412 516.811 634.412 515.675V506.651H637.052V514.955ZM658.758 521.435C657.814 521.435 656.95 521.267 656.166 520.931C655.382 520.595 654.742 520.123 654.246 519.515H653.91V521.051H651.27V500.699H653.91V508.187H654.246C654.742 507.579 655.382 507.107 656.166 506.771C656.95 506.435 657.814 506.267 658.758 506.267C660.07 506.267 661.222 506.587 662.214 507.227C663.222 507.851 663.998 508.739 664.542 509.891C665.102 511.027 665.382 512.347 665.382 513.851C665.382 515.355 665.102 516.683 664.542 517.835C663.998 518.971 663.222 519.859 662.214 520.499C661.222 521.123 660.07 521.435 658.758 521.435ZM653.814 513.851C653.814 515.419 654.214 516.659 655.014 517.571C655.814 518.483 656.902 518.939 658.278 518.939C659.654 518.939 660.742 518.483 661.542 517.571C662.342 516.659 662.742 515.419 662.742 513.851C662.742 512.283 662.342 511.043 661.542 510.131C660.742 509.219 659.654 508.763 658.278 508.763C656.902 508.763 655.814 509.219 655.014 510.131C654.214 511.043 653.814 512.283 653.814 513.851Z" fill="black"/>
<path d="M564.942 454.619C565.227 454.054 565.916 453.826 566.481 454.111C567.047 454.396 567.273 455.086 566.988 455.651L563.529 462.506C570.172 460.793 579.217 460.14 587.411 463.138C592.087 464.848 596.485 467.75 599.973 472.311C603.458 476.869 605.991 483.027 607.027 491.188C607.106 491.816 606.662 492.39 606.033 492.47C605.405 492.549 604.831 492.104 604.752 491.476C603.757 483.639 601.348 477.883 598.152 473.704C594.959 469.528 590.937 466.869 586.624 465.291C579.12 462.546 570.735 463.075 564.447 464.64L571.048 467.969C571.613 468.255 571.841 468.944 571.556 469.509C571.27 470.074 570.581 470.301 570.016 470.016L560.803 465.371C560.238 465.085 560.01 464.396 560.295 463.831L564.942 454.619Z" fill="black"/>
<g clip-path="url(#clip0_138_2)">
<path d="M513.959 430.302L516.334 439.719C516.35 439.783 516.364 439.847 516.375 439.911C516.517 440.743 516.833 441.537 517.305 442.237C517.777 442.937 518.393 443.53 519.112 443.974C519.927 444.478 520.384 445.4 520.29 446.353C520.196 447.305 519.567 448.122 518.669 448.457C515.084 449.795 511.978 451.502 510.084 454.123C508.283 456.615 507.285 460.357 508.827 466.474C509.527 469.247 511.269 471.643 513.69 473.17C514.503 473.683 514.951 474.615 514.845 475.569C514.617 477.619 515.021 479.674 515.976 481.474C515.98 481.472 515.986 481.469 515.99 481.467C517.112 480.905 519.026 479.623 521.633 476.734C522.12 476.195 522.819 475.892 523.546 475.905C529.067 476.004 534.515 474.634 539.33 471.937C539.964 471.581 540.722 471.518 541.407 471.763C545.074 473.074 547.368 473.298 548.623 473.262C548.629 473.262 548.635 473.262 548.641 473.261C548.628 471.225 548.006 469.224 546.833 467.527C546.287 466.736 546.241 465.703 546.714 464.867C548.132 462.359 548.524 459.401 547.805 456.611L547.801 456.598C546.273 450.537 543.631 447.732 540.857 446.385C537.935 444.967 534.374 444.915 530.558 445.387C529.612 445.503 528.681 445.078 528.154 444.285C527.628 443.493 527.596 442.47 528.071 441.646C528.488 440.922 528.748 440.118 528.834 439.288C528.919 438.458 528.829 437.619 528.569 436.826C528.551 436.77 528.533 436.713 528.519 436.656L526.144 427.239C525.805 425.895 526.622 424.53 527.968 424.192C529.314 423.854 530.679 424.67 531.018 426.013L532.09 430.264C533.979 429.469 535.72 429.084 537.356 429.057C539.846 429.015 541.831 429.801 543.443 430.763C544.232 431.234 544.94 431.752 545.557 432.22C546.213 432.719 546.7 433.108 547.225 433.481C548.261 434.217 548.841 434.429 549.318 434.428C550.706 434.426 551.833 435.547 551.835 436.932C551.838 438.318 550.714 439.444 549.326 439.446C547.213 439.449 545.543 438.446 544.31 437.57C543.7 437.137 543.046 436.62 542.513 436.215C541.941 435.78 541.409 435.397 540.864 435.072C539.807 434.441 538.742 434.053 537.442 434.075C536.409 434.092 535.075 434.374 533.336 435.208L533.382 435.388C533.831 436.813 533.987 438.316 533.834 439.803C533.823 439.906 533.807 440.009 533.794 440.111C536.854 440.042 540.076 440.427 543.054 441.873C547.195 443.883 550.448 447.724 552.319 454.07L552.675 455.372C553.587 458.922 553.26 462.66 551.776 465.979C553.406 468.936 554.015 472.364 553.478 475.726C553.36 476.462 552.92 477.109 552.278 477.49L550.996 475.332C552.277 477.49 552.275 477.491 552.273 477.493L552.268 477.496C552.265 477.497 552.261 477.498 552.259 477.5C552.253 477.503 552.246 477.508 552.24 477.512C552.227 477.519 552.213 477.527 552.199 477.535C552.17 477.551 552.138 477.568 552.103 477.586C552.033 477.621 551.951 477.66 551.857 477.7C551.668 477.781 551.429 477.868 551.139 477.949C550.557 478.112 549.776 478.251 548.764 478.279C546.925 478.331 544.337 478.02 540.787 476.855C535.783 479.456 530.237 480.85 524.596 480.926C522.021 483.631 519.888 485.129 518.244 485.953C517.339 486.406 516.585 486.654 515.995 486.785C515.702 486.85 515.451 486.887 515.246 486.905C515.144 486.914 515.053 486.919 514.974 486.921C514.935 486.922 514.899 486.921 514.866 486.921C514.849 486.921 514.833 486.921 514.818 486.92C514.811 486.92 514.803 486.919 514.796 486.919C514.793 486.919 514.789 486.92 514.786 486.92L514.78 486.919C514.778 486.918 514.779 486.867 514.856 485.005L514.776 486.918C514.03 486.887 513.336 486.526 512.883 485.932C510.815 483.226 509.726 479.919 509.76 476.545C506.897 474.339 504.844 471.228 503.954 467.7L503.647 466.376C502.276 459.865 503.31 454.921 506.006 451.188C507.941 448.51 510.593 446.662 513.323 445.299C513.261 445.213 513.196 445.128 513.137 445.039C512.295 443.791 511.723 442.382 511.45 440.902L509.086 431.528C508.747 430.184 509.564 428.819 510.91 428.481C512.255 428.143 513.621 428.959 513.959 430.302Z" fill="black"/>
</g>
<path d="M293.564 461.046L288.684 459.845C287.39 459.527 286.021 459.735 284.88 460.423C283.74 461.112 282.921 462.225 282.602 463.517C282.283 464.809 282.49 466.174 283.179 467.313C283.869 468.452 284.984 469.272 286.279 469.59C287.573 469.909 288.94 469.7 290.081 469.012C291.222 468.323 292.042 467.211 292.361 465.919L293.564 461.046ZM321.641 473.125C321.96 471.833 321.751 470.467 321.062 469.328C320.372 468.189 319.258 467.37 317.964 467.051L313.084 465.851L311.881 470.723C311.562 472.015 311.771 473.381 312.461 474.52C313.15 475.659 314.264 476.478 315.558 476.796C316.853 477.115 318.22 476.907 319.361 476.218C320.502 475.529 321.322 474.417 321.641 473.125ZM299.646 457.375L309.407 459.777L311.813 450.03L302.052 447.628L299.646 457.375ZM299.578 436.682C299.897 435.39 299.689 434.023 298.999 432.884C298.309 431.745 297.195 430.927 295.901 430.609C294.607 430.29 293.238 430.496 292.097 431.185C290.957 431.874 290.138 432.988 289.819 434.28C289.5 435.572 289.707 436.938 290.396 438.077C291.086 439.216 292.201 440.035 293.496 440.354L298.375 441.555L299.578 436.682ZM328.858 443.888C329.177 442.596 328.968 441.229 328.279 440.09C327.589 438.951 326.475 438.133 325.181 437.815C323.887 437.496 322.519 437.704 321.379 438.392C320.238 439.08 319.417 440.194 319.098 441.486L317.896 446.359L322.775 447.56C324.07 447.878 325.437 447.67 326.578 446.981C327.718 446.293 328.539 445.181 328.858 443.888ZM333.737 445.089C333.099 447.674 331.46 449.9 329.179 451.278C326.897 452.655 324.161 453.069 321.573 452.432L316.693 451.231L314.287 460.978L319.167 462.179C321.755 462.816 323.985 464.453 325.364 466.731C326.743 469.009 327.159 471.741 326.521 474.326C325.883 476.911 324.243 479.137 321.962 480.514C319.68 481.891 316.944 482.306 314.356 481.669C311.767 481.032 309.538 479.395 308.158 477.117C306.779 474.839 306.364 472.107 307.002 469.522L308.205 464.65L298.443 462.247L297.241 467.12C296.603 469.704 294.963 471.931 292.682 473.308C290.401 474.685 287.664 475.1 285.076 474.463C282.487 473.826 280.258 472.189 278.879 469.911C277.499 467.632 277.082 464.9 277.72 462.315C278.358 459.731 279.999 457.505 282.281 456.128C284.562 454.751 287.298 454.336 289.887 454.973L294.767 456.174L297.172 446.427L292.293 445.226C289.704 444.589 287.475 442.952 286.095 440.674C284.716 438.396 284.299 435.663 284.937 433.079C285.575 430.494 287.216 428.268 289.498 426.891C291.779 425.514 294.516 425.097 297.104 425.735C299.693 426.372 301.922 428.01 303.301 430.288C304.68 432.566 305.096 435.299 304.458 437.883L303.255 442.756L313.016 445.158L314.219 440.285C314.857 437.701 316.496 435.474 318.778 434.097C321.059 432.72 323.795 432.304 326.384 432.941C328.973 433.578 331.202 435.216 332.581 437.495C333.96 439.773 334.375 442.505 333.737 445.089Z" fill="black"/>
<path d="M285.235 506.651H287.875V507.803H289.771L288.355 508.643C288.403 507.907 288.627 507.331 289.027 506.915C289.443 506.483 289.979 506.267 290.635 506.267C291.259 506.267 291.779 506.507 292.195 506.987C292.611 507.467 292.867 508.115 292.963 508.931L291.475 507.923H294.571L293.227 508.691C293.275 507.955 293.523 507.371 293.971 506.939C294.435 506.491 295.019 506.267 295.723 506.267C296.555 506.267 297.219 506.619 297.715 507.323C298.227 508.011 298.483 508.939 298.483 510.107V521.051H295.963V511.139C295.963 510.483 295.843 509.995 295.603 509.675C295.363 509.339 295.003 509.171 294.523 509.171C294.059 509.171 293.707 509.339 293.467 509.675C293.227 509.995 293.107 510.483 293.107 511.139V521.051H290.611V511.139C290.611 510.483 290.491 509.995 290.251 509.675C290.011 509.339 289.659 509.171 289.195 509.171C288.715 509.171 288.355 509.339 288.115 509.675C287.875 509.995 287.755 510.483 287.755 511.139V521.051H285.235V506.651ZM301.848 506.651H304.68L308.376 517.427H310.056L309.312 519.851H306.432L301.848 506.651ZM315.408 506.651L310.104 523.139C309.784 524.115 309.304 524.875 308.664 525.419C308.024 525.963 307.28 526.235 306.432 526.235C305.216 526.235 304.256 525.899 303.552 525.227C302.848 524.555 302.448 523.579 302.352 522.299H304.752C304.944 522.827 305.152 523.211 305.376 523.451C305.616 523.691 305.936 523.811 306.336 523.811C306.688 523.811 306.968 523.699 307.176 523.475C307.4 523.251 307.6 522.883 307.776 522.371L312.792 506.651H315.408ZM338.889 516.635C339.113 517.387 339.521 517.963 340.113 518.363C340.705 518.763 341.465 518.963 342.393 518.963C343.353 518.963 344.089 518.795 344.601 518.459C345.113 518.107 345.369 517.611 345.369 516.971C345.369 516.539 345.161 516.179 344.745 515.891C344.329 515.603 343.713 515.403 342.897 515.291L341.145 515.027C339.577 514.787 338.417 514.323 337.665 513.635C336.913 512.947 336.537 511.987 336.537 510.755C336.537 509.363 337.049 508.267 338.073 507.467C339.113 506.667 340.537 506.267 342.345 506.267C344.185 506.267 345.641 506.715 346.713 507.611C347.785 508.507 348.353 509.755 348.417 511.355H346.017C345.793 510.507 345.369 509.859 344.745 509.411C344.121 508.963 343.305 508.739 342.297 508.739C341.289 508.739 340.513 508.915 339.969 509.267C339.425 509.603 339.153 510.091 339.153 510.731C339.153 511.163 339.361 511.523 339.777 511.811C340.193 512.099 340.809 512.299 341.625 512.411L343.377 512.675C344.961 512.915 346.121 513.379 346.857 514.067C347.609 514.755 347.985 515.715 347.985 516.947C347.985 517.875 347.753 518.675 347.289 519.347C346.841 520.019 346.201 520.539 345.369 520.907C344.537 521.259 343.537 521.435 342.369 521.435C340.577 521.435 339.161 521.011 338.121 520.163C337.097 519.315 336.537 518.139 336.441 516.635H338.889ZM354.926 512.387H363.59L362.702 513.635C362.702 512.019 362.414 510.787 361.838 509.939C361.262 509.091 360.422 508.667 359.318 508.667C358.118 508.667 357.182 509.115 356.51 510.011C355.838 510.891 355.502 512.131 355.502 513.731C355.502 515.443 355.838 516.755 356.51 517.667C357.182 518.579 358.142 519.035 359.39 519.035C360.206 519.035 360.918 518.835 361.526 518.435C362.134 518.019 362.646 517.419 363.062 516.635H365.534C365.294 517.627 364.886 518.483 364.31 519.203C363.75 519.923 363.046 520.475 362.198 520.859C361.366 521.243 360.43 521.435 359.39 521.435C358.046 521.435 356.886 521.131 355.91 520.523C354.95 519.915 354.214 519.035 353.702 517.883C353.19 516.731 352.934 515.347 352.934 513.731C352.934 512.195 353.19 510.875 353.702 509.771C354.23 508.651 354.974 507.787 355.934 507.179C356.894 506.571 358.022 506.267 359.318 506.267C360.55 506.267 361.598 506.555 362.462 507.131C363.326 507.707 363.99 508.547 364.454 509.651C364.918 510.739 365.15 512.059 365.15 513.611C365.15 513.787 365.142 513.971 365.126 514.163C365.126 514.355 365.118 514.539 365.102 514.715H354.926V512.387ZM375.186 502.907V506.651H381.666V509.123H375.186V516.323C375.186 517.171 375.362 517.827 375.714 518.291C376.066 518.739 376.578 518.963 377.25 518.963C377.954 518.963 378.498 518.723 378.882 518.243C379.282 517.747 379.578 517.003 379.77 516.011H382.098C382.018 517.771 381.554 519.115 380.706 520.043C379.858 520.971 378.674 521.435 377.154 521.435C375.682 521.435 374.546 520.995 373.746 520.115C372.946 519.235 372.546 518.003 372.546 516.419V509.123H369.378V506.651H372.546V502.907H375.186ZM398.327 506.651V521.051H395.687V519.971H394.967C394.599 520.435 394.127 520.795 393.551 521.051C392.991 521.307 392.359 521.435 391.655 521.435C390.663 521.435 389.791 521.211 389.039 520.763C388.303 520.315 387.727 519.683 387.311 518.867C386.895 518.051 386.687 517.091 386.687 515.987V506.651H389.327V515.267C389.327 516.467 389.591 517.379 390.119 518.003C390.663 518.611 391.455 518.915 392.495 518.915C393.535 518.915 394.327 518.611 394.871 518.003C395.415 517.379 395.687 516.467 395.687 515.267V506.651H398.327ZM403.54 525.851V506.651H406.18V507.971H406.9C407.22 507.443 407.7 507.027 408.34 506.723C408.98 506.419 409.684 506.267 410.452 506.267C411.652 506.267 412.692 506.579 413.572 507.203C414.452 507.811 415.132 508.683 415.612 509.819C416.092 510.955 416.332 512.299 416.332 513.851C416.332 515.403 416.092 516.747 415.612 517.883C415.132 519.019 414.452 519.899 413.572 520.523C412.692 521.131 411.652 521.435 410.452 521.435C409.684 521.435 408.98 521.283 408.34 520.979C407.7 520.659 407.22 520.243 406.9 519.731H406.18V525.851H403.54ZM409.9 518.963C411.1 518.963 412.028 518.515 412.684 517.619C413.356 516.723 413.692 515.467 413.692 513.851C413.692 512.235 413.356 510.979 412.684 510.083C412.028 509.187 411.1 508.739 409.9 508.739C408.684 508.739 407.74 509.187 407.068 510.083C406.412 510.979 406.084 512.235 406.084 513.851C406.084 515.467 406.412 516.723 407.068 517.619C407.74 518.515 408.684 518.963 409.9 518.963Z" fill="black"/>
<path d="M284.31 316.528V306.491C284.31 305.105 285.436 303.981 286.824 303.981C288.212 303.981 289.337 305.105 289.337 306.491V316.528C289.337 317.913 288.212 319.038 286.824 319.038C285.436 319.038 284.31 317.913 284.31 316.528ZM274.392 300.3C275.373 299.32 276.964 299.32 277.945 300.3C278.926 301.28 278.926 302.868 277.945 303.848L270.833 310.949C269.852 311.929 268.261 311.929 267.28 310.949C266.299 309.969 266.299 308.381 267.28 307.401L274.392 300.3ZM295.702 300.3C296.684 299.32 298.274 299.32 299.256 300.3L306.367 307.401C307.349 308.381 307.349 309.969 306.367 310.949C305.386 311.929 303.796 311.929 302.814 310.949L295.702 303.848C294.721 302.868 294.721 301.28 295.702 300.3ZM271.745 288.924C273.133 288.924 274.258 290.048 274.258 291.434C274.258 292.82 273.133 293.944 271.745 293.944H261.693C260.305 293.944 259.18 292.82 259.18 291.434C259.18 290.048 260.305 288.924 261.693 288.924H271.745ZM311.954 288.924C313.342 288.924 314.468 290.048 314.468 291.434C314.468 292.82 313.342 293.944 311.954 293.944H301.903C300.515 293.944 299.389 292.82 299.389 291.434C299.389 290.048 300.515 288.924 301.903 288.924H311.954ZM267.28 271.919C268.261 270.94 269.852 270.94 270.833 271.919L277.945 279.021C278.926 280.001 278.926 281.589 277.945 282.569C276.964 283.549 275.373 283.549 274.392 282.569L267.28 275.467C266.299 274.488 266.299 272.899 267.28 271.919ZM302.814 271.919C303.796 270.94 305.386 270.94 306.367 271.919C307.349 272.899 307.349 274.488 306.367 275.467L299.256 282.569C298.274 283.549 296.684 283.549 295.702 282.569C294.721 281.589 294.721 280.001 295.702 279.021L302.814 271.919ZM284.31 276.378V266.341C284.31 264.955 285.436 263.831 286.824 263.831C288.212 263.831 289.337 264.955 289.337 266.341V276.378C289.337 277.764 288.212 278.888 286.824 278.888C285.436 278.888 284.31 277.764 284.31 276.378Z" fill="black"/>
<path d="M958.521 332.471C957.561 332.471 956.729 332.311 956.025 331.991C955.337 331.671 954.809 331.207 954.441 330.599C954.073 329.975 953.889 329.239 953.889 328.391C953.889 327.223 954.265 326.279 955.017 325.559C955.769 324.823 956.849 324.343 958.257 324.119L963.249 323.351V325.679L958.641 326.399C958.001 326.495 957.521 326.703 957.201 327.023C956.881 327.327 956.721 327.743 956.721 328.271C956.721 328.799 956.929 329.231 957.345 329.567C957.777 329.887 958.337 330.047 959.025 330.047C959.761 330.047 960.433 329.895 961.041 329.591C961.649 329.287 962.129 328.871 962.481 328.343C962.833 327.815 963.009 327.231 963.009 326.591V323.255C963.009 322.151 962.721 321.311 962.145 320.735C961.585 320.143 960.769 319.847 959.697 319.847C958.561 319.847 957.649 320.119 956.961 320.663C956.273 321.207 955.809 321.991 955.569 323.015H953.025C953.153 321.831 953.497 320.815 954.057 319.967C954.617 319.119 955.377 318.471 956.337 318.023C957.297 317.575 958.433 317.351 959.745 317.351C961.617 317.351 963.057 317.823 964.065 318.767C965.089 319.711 965.601 321.047 965.601 322.775V332.135H963.009V330.599H962.673C962.257 331.207 961.689 331.671 960.969 331.991C960.265 332.311 959.449 332.471 958.521 332.471ZM977.465 332.519C976.521 332.519 975.657 332.351 974.873 332.015C974.089 331.679 973.449 331.207 972.953 330.599H972.617V332.135H969.977V311.783H972.617V319.271H972.953C973.449 318.663 974.089 318.191 974.873 317.855C975.657 317.519 976.521 317.351 977.465 317.351C978.777 317.351 979.929 317.671 980.921 318.311C981.929 318.935 982.705 319.823 983.249 320.975C983.809 322.111 984.089 323.431 984.089 324.935C984.089 326.439 983.809 327.767 983.249 328.919C982.705 330.055 981.929 330.943 980.921 331.583C979.929 332.207 978.777 332.519 977.465 332.519ZM972.521 324.935C972.521 326.503 972.921 327.743 973.721 328.655C974.521 329.567 975.609 330.023 976.985 330.023C978.361 330.023 979.449 329.567 980.249 328.655C981.049 327.743 981.449 326.503 981.449 324.935C981.449 323.367 981.049 322.127 980.249 321.215C979.449 320.303 978.361 319.847 976.985 319.847C975.609 319.847 974.521 320.303 973.721 321.215C972.921 322.127 972.521 323.367 972.521 324.935ZM993.889 332.519C992.449 332.519 991.177 332.207 990.073 331.583C988.985 330.943 988.137 330.055 987.529 328.919C986.937 327.767 986.641 326.439 986.641 324.935C986.641 323.431 986.937 322.111 987.529 320.975C988.137 319.823 988.985 318.935 990.073 318.311C991.177 317.671 992.449 317.351 993.889 317.351C995.329 317.351 996.593 317.671 997.681 318.311C998.785 318.935 999.633 319.823 1000.22 320.975C1000.83 322.111 1001.14 323.431 1001.14 324.935C1001.14 326.439 1000.83 327.767 1000.22 328.919C999.633 330.055 998.785 330.943 997.681 331.583C996.593 332.207 995.329 332.519 993.889 332.519ZM993.889 330.023C994.833 330.023 995.649 329.823 996.337 329.423C997.041 329.007 997.577 328.415 997.945 327.647C998.313 326.879 998.497 325.975 998.497 324.935C998.497 323.895 998.313 322.991 997.945 322.223C997.577 321.455 997.041 320.871 996.337 320.471C995.649 320.055 994.833 319.847 993.889 319.847C992.945 319.847 992.121 320.055 991.417 320.471C990.729 320.871 990.201 321.455 989.833 322.223C989.465 322.991 989.281 323.895 989.281 324.935C989.281 325.975 989.465 326.879 989.833 327.647C990.201 328.415 990.729 329.007 991.417 329.423C992.121 329.823 992.945 330.023 993.889 330.023ZM1014.07 332.135V317.735H1016.71V332.135H1014.07ZM1007.11 326.039C1007.11 327.319 1007.41 328.303 1008 328.991C1008.61 329.679 1009.47 330.023 1010.59 330.023C1011.71 330.023 1012.57 329.679 1013.16 328.991C1013.77 328.303 1014.07 327.319 1014.07 326.039H1014.79V330.935H1013.74C1013.3 331.447 1012.74 331.839 1012.03 332.111C1011.34 332.383 1010.58 332.519 1009.75 332.519C1008.71 332.519 1007.79 332.279 1006.99 331.799C1006.19 331.319 1005.57 330.647 1005.12 329.783C1004.69 328.903 1004.47 327.895 1004.47 326.759V317.735H1007.11V326.039ZM1027.23 332.519C1025.78 332.519 1024.65 332.055 1023.85 331.127C1023.06 330.183 1022.67 328.839 1022.67 327.095V320.231H1019.79V317.735H1022.67V313.991H1025.31V317.735H1031.31V320.231H1025.31V327.095C1025.31 328.071 1025.48 328.807 1025.82 329.303C1026.17 329.783 1026.67 330.023 1027.33 330.023C1028.05 330.023 1028.62 329.783 1029.06 329.303C1029.49 328.823 1029.79 328.087 1029.97 327.095H1032.32C1032.26 328.839 1031.78 330.183 1030.9 331.127C1030.02 332.055 1028.8 332.519 1027.23 332.519ZM956.985 346.735V361.135H954.345V346.735H956.985ZM963.225 352.471C963.225 351.303 962.953 350.407 962.409 349.783C961.865 349.159 961.097 348.847 960.105 348.847C959.113 348.847 958.345 349.167 957.801 349.807C957.257 350.431 956.985 351.319 956.985 352.471H955.545V347.935H957.321C957.641 347.423 958.113 347.031 958.737 346.759C959.377 346.487 960.113 346.351 960.945 346.351C961.921 346.351 962.777 346.575 963.513 347.023C964.265 347.471 964.841 348.103 965.241 348.919C965.657 349.735 965.865 350.679 965.865 351.751V361.135H963.225V352.471ZM972.105 352.471C972.105 351.303 971.833 350.407 971.289 349.783C970.745 349.159 969.977 348.847 968.985 348.847C967.993 348.847 967.225 349.167 966.681 349.807C966.137 350.431 965.865 351.319 965.865 352.471H964.425V348.175H965.577C965.945 347.615 966.473 347.175 967.161 346.855C967.849 346.519 968.617 346.351 969.465 346.351C970.505 346.351 971.425 346.575 972.225 347.023C973.025 347.471 973.641 348.103 974.073 348.919C974.521 349.735 974.745 350.679 974.745 351.751V361.135H972.105V352.471ZM990.206 352.447L989.318 353.815C989.318 352.231 988.95 350.999 988.214 350.119C987.494 349.239 986.47 348.799 985.142 348.799C983.766 348.799 982.678 349.255 981.878 350.167C981.078 351.063 980.678 352.279 980.678 353.815C980.678 355.479 981.078 356.775 981.878 357.703C982.678 358.615 983.806 359.071 985.262 359.071C986.238 359.071 987.11 358.863 987.878 358.447C988.662 358.031 989.27 357.455 989.702 356.719H992.198C991.894 357.743 991.414 358.615 990.758 359.335C990.102 360.039 989.31 360.583 988.382 360.967C987.454 361.335 986.414 361.519 985.262 361.519C983.79 361.519 982.51 361.215 981.422 360.607C980.35 359.983 979.526 359.095 978.95 357.943C978.374 356.775 978.086 355.399 978.086 353.815C978.086 352.343 978.374 351.039 978.95 349.903C979.542 348.767 980.374 347.895 981.446 347.287C982.518 346.663 983.75 346.351 985.142 346.351C986.486 346.351 987.654 346.655 988.646 347.263C989.654 347.855 990.422 348.711 990.95 349.831C991.494 350.951 991.766 352.263 991.766 353.767C991.766 354.007 991.75 354.351 991.718 354.799H980.198V352.447H990.206Z" fill="black"/>
<path d="M984.823 340.416C985.093 339.844 985.777 339.6 986.349 339.87C986.921 340.141 987.166 340.824 986.895 341.396C981.695 352.405 972.306 360.045 962.001 362.355C952.356 364.517 941.998 361.985 933.69 353.345L933.015 360.994C932.959 361.625 932.403 362.091 931.772 362.036C931.141 361.98 930.675 361.423 930.731 360.793L931.638 350.516C931.693 349.885 932.249 349.419 932.88 349.474L943.159 350.381C943.789 350.437 944.255 350.993 944.2 351.624C944.144 352.254 943.588 352.721 942.957 352.665L935.593 352.015C943.307 359.874 952.742 362.081 961.5 360.118C971.049 357.978 979.894 350.85 984.823 340.416Z" fill="black"/>
<path d="M921.868 343.341C921.868 334.61 914.779 327.534 906.035 327.534C897.292 327.534 890.205 334.61 890.205 343.341C890.205 352.072 897.292 359.15 906.035 359.15C914.779 359.15 921.868 352.072 921.868 343.341ZM904.277 350.367V343.341C904.277 342.371 905.064 341.586 906.035 341.585C907.007 341.585 907.795 342.371 907.795 343.341V350.367C907.795 351.337 907.007 352.124 906.035 352.124C905.064 352.124 904.277 351.337 904.277 350.367ZM906.053 334.56C907.024 334.56 907.813 335.345 907.813 336.315C907.813 337.285 907.025 338.072 906.053 338.072H906.035C905.064 338.072 904.277 337.285 904.277 336.315C904.277 335.345 905.064 334.56 906.035 334.56H906.053ZM925.386 343.341C925.386 354.012 916.722 362.663 906.035 362.663C895.349 362.663 886.685 354.012 886.685 343.341C886.685 332.67 895.349 324.019 906.035 324.019C916.722 324.019 925.386 332.67 925.386 343.341Z" fill="black"/>
<path d="M746.547 419.875C747.267 419.157 748.351 418.944 749.291 419.335L791.938 437.075C792.903 437.476 793.518 438.433 793.483 439.476C793.447 440.519 792.768 441.432 791.779 441.767L777.033 446.766L790.31 460.025C791.291 461.005 791.291 462.593 790.31 463.573C789.328 464.553 787.738 464.553 786.757 463.573L773.478 450.316L768.471 465.04C768.135 466.029 767.221 466.706 766.177 466.742C765.132 466.777 764.174 466.163 763.772 465.199L746.006 422.615C745.614 421.676 745.827 420.594 746.547 419.875ZM765.851 457.134L770.019 444.883L770.13 444.613C770.419 444.004 770.945 443.532 771.592 443.313L783.861 439.151L752.989 426.308L765.851 457.134Z" fill="black"/>
<path d="M469.041 236.116V250.516H466.401V236.116H469.041ZM475.281 241.852C475.281 240.684 475.009 239.788 474.465 239.164C473.921 238.54 473.153 238.228 472.161 238.228C471.169 238.228 470.401 238.548 469.857 239.188C469.313 239.812 469.041 240.7 469.041 241.852H467.601V237.316H469.377C469.697 236.804 470.169 236.412 470.793 236.14C471.433 235.868 472.169 235.732 473.001 235.732C473.977 235.732 474.833 235.956 475.569 236.404C476.321 236.852 476.897 237.484 477.297 238.3C477.713 239.116 477.921 240.06 477.921 241.132V250.516H475.281V241.852ZM484.161 241.852C484.161 240.684 483.889 239.788 483.345 239.164C482.801 238.54 482.033 238.228 481.041 238.228C480.049 238.228 479.281 238.548 478.737 239.188C478.193 239.812 477.921 240.7 477.921 241.852H476.481V237.556H477.633C478.001 236.996 478.529 236.556 479.217 236.236C479.905 235.9 480.673 235.732 481.521 235.732C482.561 235.732 483.481 235.956 484.281 236.404C485.081 236.852 485.697 237.484 486.129 238.3C486.577 239.116 486.801 240.06 486.801 241.132V250.516H484.161V241.852ZM492.134 236.116L496.694 249.316H493.862L489.254 236.116H492.134ZM497.51 252.676C497.254 253.348 496.934 253.908 496.55 254.356C496.182 254.804 495.742 255.14 495.23 255.364C494.734 255.588 494.174 255.7 493.55 255.7C492.734 255.7 492.03 255.548 491.438 255.244C490.846 254.94 490.374 254.492 490.022 253.9C489.686 253.308 489.486 252.596 489.422 251.764H491.87C492.062 252.292 492.278 252.676 492.518 252.916C492.774 253.172 493.102 253.3 493.502 253.3C493.918 253.3 494.254 253.18 494.51 252.94C494.766 252.716 494.99 252.34 495.182 251.812L500.174 236.116H502.838L497.51 252.676ZM473.889 264.732C475.201 264.732 476.353 265.052 477.345 265.692C478.353 266.316 479.129 267.204 479.673 268.356C480.233 269.492 480.513 270.812 480.513 272.316C480.513 273.82 480.233 275.148 479.673 276.3C479.129 277.436 478.353 278.324 477.345 278.964C476.353 279.588 475.201 279.9 473.889 279.9C472.945 279.9 472.081 279.732 471.297 279.396C470.513 279.06 469.873 278.588 469.377 277.98H469.041V284.316H466.401V265.116H469.041V266.652H469.377C469.873 266.044 470.513 265.572 471.297 265.236C472.081 264.9 472.945 264.732 473.889 264.732ZM468.945 272.316C468.945 273.884 469.345 275.124 470.145 276.036C470.945 276.948 472.033 277.404 473.409 277.404C474.785 277.404 475.873 276.948 476.673 276.036C477.473 275.124 477.873 273.884 477.873 272.316C477.873 270.748 477.473 269.508 476.673 268.596C475.873 267.684 474.785 267.228 473.409 267.228C472.033 267.228 470.945 267.684 470.145 268.596C469.345 269.508 468.945 270.748 468.945 272.316ZM484.096 265.116H486.736V266.316H487.072C487.408 265.804 487.856 265.412 488.416 265.14C488.976 264.868 489.608 264.732 490.312 264.732C491.592 264.732 492.6 265.172 493.336 266.052C494.088 266.932 494.464 268.14 494.464 269.676V270.828H491.728V270.06C491.728 269.1 491.544 268.388 491.176 267.924C490.824 267.46 490.28 267.228 489.544 267.228C488.584 267.228 487.872 267.604 487.408 268.356C486.96 269.108 486.736 270.268 486.736 271.836V279.516H484.096V265.116ZM503.742 279.9C502.302 279.9 501.03 279.588 499.926 278.964C498.838 278.324 497.99 277.436 497.382 276.3C496.79 275.148 496.494 273.82 496.494 272.316C496.494 270.812 496.79 269.492 497.382 268.356C497.99 267.204 498.838 266.316 499.926 265.692C501.03 265.052 502.302 264.732 503.742 264.732C505.182 264.732 506.446 265.052 507.534 265.692C508.638 266.316 509.486 267.204 510.078 268.356C510.686 269.492 510.99 270.812 510.99 272.316C510.99 273.82 510.686 275.148 510.078 276.3C509.486 277.436 508.638 278.324 507.534 278.964C506.446 279.588 505.182 279.9 503.742 279.9ZM503.742 277.404C504.686 277.404 505.502 277.204 506.19 276.804C506.894 276.388 507.43 275.796 507.798 275.028C508.166 274.26 508.35 273.356 508.35 272.316C508.35 271.276 508.166 270.372 507.798 269.604C507.43 268.836 506.894 268.252 506.19 267.852C505.502 267.436 504.686 267.228 503.742 267.228C502.798 267.228 501.974 267.436 501.27 267.852C500.582 268.252 500.054 268.836 499.686 269.604C499.318 270.372 499.134 271.276 499.134 272.316C499.134 273.356 499.318 274.26 499.686 275.028C500.054 275.796 500.582 276.388 501.27 276.804C501.974 277.204 502.798 277.404 503.742 277.404ZM517.829 265.116V280.14C517.829 281.548 517.445 282.66 516.677 283.476C515.909 284.292 514.861 284.7 513.533 284.7C512.253 284.7 511.229 284.38 510.461 283.74C509.693 283.1 509.285 282.22 509.237 281.1H511.733C511.861 281.484 512.069 281.78 512.357 281.988C512.661 282.196 513.053 282.3 513.533 282.3C514.061 282.3 514.469 282.108 514.757 281.724C515.045 281.356 515.189 280.828 515.189 280.14V265.116H517.829ZM516.509 262.908C515.901 262.908 515.413 262.74 515.045 262.404C514.677 262.052 514.493 261.596 514.493 261.036C514.493 260.476 514.677 260.028 515.045 259.692C515.413 259.34 515.901 259.164 516.509 259.164C517.117 259.164 517.605 259.34 517.973 259.692C518.341 260.028 518.525 260.476 518.525 261.036C518.525 261.596 518.341 262.052 517.973 262.404C517.605 262.74 517.117 262.908 516.509 262.908ZM533.528 270.828L532.64 272.196C532.64 270.612 532.272 269.38 531.536 268.5C530.816 267.62 529.792 267.18 528.464 267.18C527.088 267.18 526 267.636 525.2 268.548C524.4 269.444 524 270.66 524 272.196C524 273.86 524.4 275.156 525.2 276.084C526 276.996 527.128 277.452 528.584 277.452C529.56 277.452 530.432 277.244 531.2 276.828C531.984 276.412 532.592 275.836 533.024 275.1H535.52C535.216 276.124 534.736 276.996 534.08 277.716C533.424 278.42 532.632 278.964 531.704 279.348C530.776 279.716 529.736 279.9 528.584 279.9C527.112 279.9 525.832 279.596 524.744 278.988C523.672 278.364 522.848 277.476 522.272 276.324C521.696 275.156 521.408 273.78 521.408 272.196C521.408 270.724 521.696 269.42 522.272 268.284C522.864 267.148 523.696 266.276 524.768 265.668C525.84 265.044 527.072 264.732 528.464 264.732C529.808 264.732 530.976 265.036 531.968 265.644C532.976 266.236 533.744 267.092 534.272 268.212C534.816 269.332 535.088 270.644 535.088 272.148C535.088 272.388 535.072 272.732 535.04 273.18H523.52V270.828H533.528ZM472.449 308.9C471.041 308.9 469.801 308.588 468.729 307.964C467.673 307.34 466.849 306.46 466.257 305.324C465.665 304.188 465.369 302.876 465.369 301.388C465.369 299.868 465.673 298.532 466.281 297.38C466.905 296.228 467.777 295.332 468.897 294.692C470.017 294.052 471.313 293.732 472.785 293.732C474.065 293.732 475.201 293.98 476.193 294.476C477.201 294.972 477.993 295.668 478.569 296.564C479.161 297.46 479.481 298.5 479.529 299.684H477.105C476.881 298.612 476.377 297.772 475.593 297.164C474.825 296.54 473.857 296.228 472.689 296.228C471.729 296.228 470.897 296.436 470.193 296.852C469.489 297.268 468.945 297.868 468.561 298.652C468.193 299.42 468.009 300.332 468.009 301.388C468.009 302.428 468.185 303.324 468.537 304.076C468.905 304.828 469.417 305.404 470.073 305.804C470.745 306.204 471.537 306.404 472.449 306.404C473.521 306.404 474.425 306.14 475.161 305.612C475.897 305.068 476.385 304.324 476.625 303.38H479.049C478.985 304.468 478.665 305.436 478.089 306.284C477.513 307.116 476.737 307.764 475.761 308.228C474.785 308.676 473.681 308.9 472.449 308.9ZM488.524 308.9C487.068 308.9 485.94 308.436 485.14 307.508C484.356 306.564 483.964 305.22 483.964 303.476V296.612H481.084V294.116H483.964V290.372H486.604V294.116H492.604V296.612H486.604V303.476C486.604 304.452 486.772 305.188 487.108 305.684C487.46 306.164 487.964 306.404 488.62 306.404C489.34 306.404 489.916 306.164 490.348 305.684C490.78 305.204 491.084 304.468 491.26 303.476H493.612C493.548 305.22 493.076 306.564 492.196 307.508C491.316 308.436 490.092 308.9 488.524 308.9ZM498.338 304.1C498.578 304.836 499.034 305.404 499.706 305.804C500.394 306.204 501.274 306.404 502.346 306.404C503.466 306.404 504.306 306.236 504.866 305.9C505.426 305.564 505.706 305.06 505.706 304.388C505.706 303.972 505.474 303.628 505.01 303.356C504.562 303.084 503.882 302.884 502.97 302.756L500.906 302.468C499.21 302.228 497.97 301.78 497.186 301.124C496.402 300.452 496.01 299.508 496.01 298.292C496.01 297.332 496.258 296.516 496.754 295.844C497.25 295.156 497.962 294.636 498.89 294.284C499.834 293.916 500.97 293.732 502.298 293.732C503.61 293.732 504.746 293.932 505.706 294.332C506.682 294.732 507.434 295.316 507.962 296.084C508.49 296.852 508.778 297.764 508.826 298.82H506.426C506.186 297.988 505.714 297.348 505.01 296.9C504.306 296.452 503.386 296.228 502.25 296.228C501.066 296.228 500.17 296.396 499.562 296.732C498.954 297.068 498.65 297.572 498.65 298.244C498.65 298.66 498.874 299.004 499.322 299.276C499.786 299.548 500.474 299.748 501.386 299.876L503.45 300.164C505.146 300.404 506.386 300.86 507.17 301.532C507.954 302.188 508.346 303.124 508.346 304.34C508.346 305.3 508.106 306.124 507.626 306.812C507.146 307.484 506.45 308.004 505.538 308.372C504.642 308.724 503.562 308.9 502.298 308.9C501.002 308.9 499.882 308.716 498.938 308.348C498.01 307.964 497.282 307.412 496.754 306.692C496.242 305.972 495.962 305.108 495.914 304.1H498.338Z" fill="black"/>
<path d="M520.093 280.51C520.215 279.889 520.817 279.484 521.438 279.606C522.059 279.728 522.464 280.33 522.343 280.951C521.062 287.48 521.746 296.472 527.643 302.568C533.231 308.344 543.844 311.865 563.029 307.713L556.621 303.819C556.08 303.491 555.908 302.786 556.237 302.245C556.565 301.704 557.271 301.531 557.812 301.86L566.63 307.218C567.171 307.547 567.343 308.252 567.014 308.793L561.656 317.609C561.327 318.15 560.621 318.322 560.08 317.994C559.539 317.665 559.367 316.96 559.696 316.419L563.642 309.925C544.003 314.199 532.387 310.769 525.995 304.161C519.371 297.313 518.737 287.425 520.093 280.51Z" fill="black"/>
<path d="M593.263 279.375C594.529 279.004 595.87 278.974 597.152 279.283L597.154 279.281L616.862 283.973L616.874 283.975L617.351 284.107C618.212 284.377 619.014 284.802 619.725 285.355C619.916 285.458 620.098 285.586 620.262 285.743C620.4 285.874 620.517 286.02 620.618 286.171C621.41 287.023 621.995 288.047 622.325 289.165L627.982 308.434C628.352 309.702 628.383 311.044 628.07 312.326C627.757 313.609 627.112 314.786 626.199 315.741L626.191 315.749L612.145 330.314C611.51 330.978 610.761 331.515 609.938 331.907C609.65 332.194 609.288 332.416 608.87 332.539C608.452 332.661 608.028 332.669 607.63 332.582C606.725 332.696 605.804 332.65 604.912 332.433L604.911 332.432L585.213 327.744L585.203 327.741C583.919 327.43 582.739 326.786 581.782 325.875C580.825 324.964 580.124 323.818 579.751 322.552L574.094 303.283C573.767 302.164 573.707 300.987 573.912 299.845C573.915 299.661 573.936 299.476 573.981 299.29C574.035 299.068 574.12 298.86 574.226 298.669C574.58 297.668 575.139 296.748 575.878 295.975L575.885 295.968L582.406 289.203C582.643 288.701 583.039 288.303 583.513 288.055L589.939 281.393L589.939 281.395C590.851 280.443 591.997 279.746 593.263 279.375ZM584.574 321.135L584.686 321.443C584.819 321.743 585.01 322.015 585.25 322.243C585.567 322.545 585.959 322.758 586.385 322.863L604.691 327.219L599.041 307.975L579.299 303.167L584.574 321.135ZM603.864 306.563L609.514 325.807L622.563 312.277C622.867 311.958 623.083 311.566 623.188 311.138C623.292 310.711 623.281 310.265 623.158 309.843L617.883 291.873L603.864 306.563ZM580.593 298.318L600.227 303.099L605.247 297.839L585.635 293.09L580.593 298.318ZM594.677 284.192C594.254 284.316 593.872 284.549 593.567 284.867L593.559 284.875L589.672 288.904L609.251 293.645L614.169 288.49L595.989 284.164L595.978 284.162C595.549 284.058 595.1 284.068 594.677 284.192Z" fill="black"/>
<path d="M799.843 260.987C798.435 260.987 797.195 260.675 796.123 260.051C795.067 259.427 794.243 258.547 793.651 257.411C793.059 256.275 792.763 254.963 792.763 253.475C792.763 251.955 793.067 250.619 793.675 249.467C794.299 248.315 795.171 247.419 796.291 246.779C797.411 246.139 798.707 245.819 800.179 245.819C801.459 245.819 802.595 246.067 803.587 246.563C804.595 247.059 805.387 247.755 805.963 248.651C806.555 249.547 806.875 250.587 806.923 251.771H804.499C804.275 250.699 803.771 249.859 802.987 249.251C802.219 248.627 801.251 248.315 800.083 248.315C799.123 248.315 798.291 248.523 797.587 248.939C796.883 249.355 796.339 249.955 795.955 250.739C795.587 251.507 795.403 252.419 795.403 253.475C795.403 254.515 795.579 255.411 795.931 256.163C796.299 256.915 796.811 257.491 797.467 257.891C798.139 258.291 798.931 258.491 799.843 258.491C800.915 258.491 801.819 258.227 802.555 257.699C803.291 257.155 803.779 256.411 804.019 255.467H806.443C806.379 256.555 806.059 257.523 805.483 258.371C804.907 259.203 804.131 259.851 803.155 260.315C802.179 260.763 801.075 260.987 799.843 260.987ZM816.23 260.987C814.79 260.987 813.518 260.675 812.414 260.051C811.326 259.411 810.478 258.523 809.87 257.387C809.278 256.235 808.982 254.907 808.982 253.403C808.982 251.899 809.278 250.579 809.87 249.443C810.478 248.291 811.326 247.403 812.414 246.779C813.518 246.139 814.79 245.819 816.23 245.819C817.67 245.819 818.934 246.139 820.022 246.779C821.126 247.403 821.974 248.291 822.566 249.443C823.174 250.579 823.478 251.899 823.478 253.403C823.478 254.907 823.174 256.235 822.566 257.387C821.974 258.523 821.126 259.411 820.022 260.051C818.934 260.675 817.67 260.987 816.23 260.987ZM816.23 258.491C817.174 258.491 817.99 258.291 818.678 257.891C819.382 257.475 819.918 256.883 820.286 256.115C820.654 255.347 820.838 254.443 820.838 253.403C820.838 252.363 820.654 251.459 820.286 250.691C819.918 249.923 819.382 249.339 818.678 248.939C817.99 248.523 817.174 248.315 816.23 248.315C815.286 248.315 814.462 248.523 813.758 248.939C813.07 249.339 812.542 249.923 812.174 250.691C811.806 251.459 811.622 252.363 811.622 253.403C811.622 254.443 811.806 255.347 812.174 256.115C812.542 256.883 813.07 257.475 813.758 257.891C814.462 258.291 815.286 258.491 816.23 258.491ZM829.693 246.203V260.603H827.053V246.203H829.693ZM836.653 252.299C836.653 251.019 836.349 250.035 835.741 249.347C835.149 248.659 834.293 248.315 833.173 248.315C832.053 248.315 831.189 248.659 830.581 249.347C829.989 250.035 829.693 251.019 829.693 252.299H828.973V247.403H830.029C830.461 246.891 831.021 246.499 831.709 246.227C832.413 245.955 833.181 245.819 834.013 245.819C835.053 245.819 835.973 246.059 836.773 246.539C837.573 247.019 838.189 247.699 838.621 248.579C839.069 249.443 839.293 250.443 839.293 251.579V260.603H836.653V252.299ZM849.34 260.987C847.884 260.987 846.756 260.523 845.956 259.595C845.172 258.651 844.78 257.307 844.78 255.563V248.699H841.9V246.203H844.78V242.459H847.42V246.203H853.42V248.699H847.42V255.563C847.42 256.539 847.588 257.275 847.924 257.771C848.276 258.251 848.78 258.491 849.436 258.491C850.156 258.491 850.732 258.251 851.164 257.771C851.596 257.291 851.9 256.555 852.076 255.563H854.428C854.364 257.307 853.892 258.651 853.012 259.595C852.132 260.523 850.908 260.987 849.34 260.987ZM797.971 289.939C797.011 289.939 796.179 289.779 795.475 289.459C794.787 289.139 794.259 288.675 793.891 288.067C793.523 287.443 793.339 286.707 793.339 285.859C793.339 284.691 793.715 283.747 794.467 283.027C795.219 282.291 796.299 281.811 797.707 281.587L802.699 280.819V283.147L798.091 283.867C797.451 283.963 796.971 284.171 796.651 284.491C796.331 284.795 796.171 285.211 796.171 285.739C796.171 286.267 796.379 286.699 796.795 287.035C797.227 287.355 797.787 287.515 798.475 287.515C799.211 287.515 799.883 287.363 800.491 287.059C801.099 286.755 801.579 286.339 801.931 285.811C802.283 285.283 802.459 284.699 802.459 284.059V280.723C802.459 279.619 802.171 278.779 801.595 278.203C801.035 277.611 800.219 277.315 799.147 277.315C798.011 277.315 797.099 277.587 796.411 278.131C795.723 278.675 795.259 279.459 795.019 280.483H792.475C792.603 279.299 792.947 278.283 793.507 277.435C794.067 276.587 794.827 275.939 795.787 275.491C796.747 275.043 797.883 274.819 799.195 274.819C801.067 274.819 802.507 275.291 803.515 276.235C804.539 277.179 805.051 278.515 805.051 280.243V289.603H802.459V288.067H802.123C801.707 288.675 801.139 289.139 800.419 289.459C799.715 289.779 798.899 289.939 797.971 289.939ZM815.476 289.987C814.068 289.987 812.828 289.675 811.756 289.051C810.7 288.427 809.876 287.547 809.284 286.411C808.692 285.275 808.396 283.963 808.396 282.475C808.396 280.955 808.7 279.619 809.308 278.467C809.932 277.315 810.804 276.419 811.924 275.779C813.044 275.139 814.34 274.819 815.812 274.819C817.092 274.819 818.228 275.067 819.22 275.563C820.228 276.059 821.02 276.755 821.596 277.651C822.188 278.547 822.508 279.587 822.556 280.771H820.132C819.908 279.699 819.404 278.859 818.62 278.251C817.852 277.627 816.884 277.315 815.716 277.315C814.756 277.315 813.924 277.523 813.22 277.939C812.516 278.355 811.972 278.955 811.588 279.739C811.22 280.507 811.036 281.419 811.036 282.475C811.036 283.515 811.212 284.411 811.564 285.163C811.932 285.915 812.444 286.491 813.1 286.891C813.772 287.291 814.564 287.491 815.476 287.491C816.548 287.491 817.452 287.227 818.188 286.699C818.924 286.155 819.412 285.411 819.652 284.467H822.076C822.012 285.555 821.692 286.523 821.116 287.371C820.54 288.203 819.764 288.851 818.788 289.315C817.812 289.763 816.708 289.987 815.476 289.987ZM831.551 289.987C830.095 289.987 828.967 289.523 828.167 288.595C827.383 287.651 826.991 286.307 826.991 284.563V277.699H824.111V275.203H826.991V271.459H829.631V275.203H835.631V277.699H829.631V284.563C829.631 285.539 829.799 286.275 830.135 286.771C830.487 287.251 830.991 287.491 831.647 287.491C832.367 287.491 832.943 287.251 833.375 286.771C833.807 286.291 834.111 285.555 834.287 284.563H836.639C836.575 286.307 836.103 287.651 835.223 288.595C834.343 289.523 833.119 289.987 831.551 289.987Z" fill="black"/>
<path d="M754.355 256.386C757.132 253.885 760.464 253.157 764.029 253.548C767.551 253.934 771.35 255.412 775.215 257.363C779.09 259.319 783.127 261.802 787.12 264.262C791.131 266.734 795.097 269.182 798.898 271.126C802.707 273.074 806.26 274.466 809.433 274.88C812.57 275.289 815.271 274.738 817.524 272.869C819.817 270.967 821.8 267.574 823.189 261.978C823.342 261.364 823.963 260.989 824.578 261.141C825.192 261.294 825.567 261.916 825.414 262.53C823.967 268.363 821.81 272.292 818.988 274.633C816.126 277.007 812.735 277.623 809.136 277.153C805.573 276.688 801.743 275.157 797.854 273.168C793.956 271.175 789.908 268.673 785.917 266.214C781.907 263.743 777.954 261.314 774.181 259.409C770.399 257.5 766.892 256.168 763.779 255.827C760.709 255.491 758.076 256.119 755.89 258.089C754.042 259.754 752.419 262.46 751.181 266.61L757.446 262.643C757.98 262.304 758.688 262.464 759.027 262.999C759.366 263.534 759.207 264.242 758.673 264.58L749.956 270.101C749.421 270.439 748.713 270.281 748.374 269.746L742.852 261.03C742.513 260.495 742.673 259.787 743.208 259.448C743.742 259.109 744.451 259.269 744.789 259.803L748.89 266.275C750.211 261.702 752.041 258.471 754.355 256.386Z" fill="black"/>
<path d="M712.544 319.825C712.751 321.812 713.742 323.637 715.296 324.896C716.849 326.154 718.84 326.744 720.83 326.537C722.82 326.33 724.648 325.343 725.908 323.791L746.484 298.463C748.585 295.877 749.569 292.563 749.224 289.252C748.878 285.94 747.23 282.901 744.64 280.803C742.051 278.705 738.732 277.721 735.415 278.066C732.099 278.411 729.055 280.058 726.954 282.644L706.378 307.972C705.504 309.048 703.92 309.213 702.843 308.34C701.765 307.467 701.601 305.887 702.474 304.811L723.05 279.483C725.991 275.863 730.252 273.558 734.894 273.074C739.537 272.591 744.181 273.97 747.806 276.906C751.431 279.842 753.74 284.096 754.224 288.731C754.708 293.367 753.327 298.004 750.387 301.624L729.811 326.952C727.71 329.537 724.667 331.185 721.351 331.53C718.036 331.875 714.719 330.889 712.13 328.792C709.541 326.695 707.891 323.657 707.545 320.345C707.2 317.035 708.186 313.723 710.287 311.138L710.286 311.136L730.887 285.805L730.889 285.807C732.149 284.256 733.973 283.268 735.962 283.061C737.951 282.854 739.941 283.445 741.495 284.703C743.048 285.961 744.037 287.784 744.244 289.77C744.452 291.757 743.86 293.744 742.6 295.295L742.601 295.296L723.588 318.67C722.713 319.745 721.131 319.909 720.054 319.036C718.977 318.163 718.812 316.581 719.687 315.505L738.698 292.132L738.7 292.134C739.119 291.616 739.315 290.953 739.246 290.29C739.176 289.628 738.847 289.019 738.329 288.6C737.811 288.18 737.146 287.984 736.483 288.053C735.819 288.122 735.21 288.451 734.79 288.968L734.79 288.97L714.188 314.3C712.928 315.852 712.337 317.839 712.544 319.825Z" fill="black"/>
<defs>
<clipPath id="clip0_138_2">
<rect width="60.3076" height="60.2291" fill="white" transform="matrix(-0.969817 0.243836 -0.244514 -0.969646 564.014 474.646)"/>
</clipPath>
</defs>
</svg>
