<svg width="1280" height="832" viewBox="0 0 1280 832" fill="none" xmlns="http://www.w3.org/2000/svg">
<path d="M922.165 506.108H920.098C915.964 506.108 914.086 505.357 912.958 502.168L904.692 480.403C904.504 479.84 904.316 479.277 904.316 478.902C904.316 476.087 908.073 475.712 910.328 475.712C921.413 475.524 926.674 470.271 926.674 465.768C926.674 463.329 924.231 460.326 921.601 456.949L916.528 451.32C908.261 441.939 904.879 433.871 904.879 426.741C904.879 405.539 935.504 394.281 960.117 394.281C967.444 394.281 969.323 395.032 970.638 398.409L979.093 420.174C979.468 420.924 979.468 421.487 979.468 422.05C979.468 424.114 977.402 424.865 974.959 424.865H974.208C962.935 424.865 958.614 428.617 958.614 432.37C958.614 435.559 961.432 439.124 968.571 447.005C977.214 456.386 980.971 464.83 980.971 471.959C980.971 494.1 947.341 506.108 922.165 506.108Z" fill="black"/>
<path d="M902.892 453.805L884.852 471.866C882.266 474.387 879.96 475.422 877.635 474.676C875.846 474.103 864.242 467.23 857.996 455.966C847.144 457.808 836.794 456.855 827.671 453.93C797.796 444.354 779.386 413.229 788.631 384.466C795.522 363.028 820.662 336.996 856.082 348.35C865.027 351.217 873.161 355.993 879.161 361.266C880.637 360.36 882.419 360.34 884.566 361.028L885.46 361.315L915.547 373.915C920.083 375.764 920.589 378.487 919.9 380.631L919.613 381.524C911.883 396.979 904.383 411.719 900.593 423.509C897.147 434.228 896.646 442.541 901.394 447.413C902.896 448.88 904.519 450.583 903.945 452.369C903.83 452.727 903.479 453.205 902.892 453.805ZM854.668 423.961C855.625 419.144 856.875 414.027 858.655 408.489C860.148 403.844 861.877 399.078 863.958 393.833C862.959 389.572 858.933 385.523 853.745 383.86C842.475 380.247 832.711 389.137 829.783 398.249C826.567 408.253 830.787 419.065 842.415 422.792C845.814 423.882 849.98 424.429 854.668 423.961Z" fill="black"/>
<path d="M721.603 495.819L720.158 477.472C719.913 474.751 721.826 472.406 723.755 471.663L724.456 471.393C725.751 471.096 726.978 470.623 728.03 470.218C738.548 466.169 745.488 458.067 744.348 448.854C741.986 431.263 726.895 385.393 715.147 353.921C713.768 349.827 715.601 348.316 717.705 347.506C717.88 347.439 747.98 337.257 751.904 335.948C754.844 335.218 757.165 336.536 758.111 338.987C758.585 340.212 782.68 410.969 787.289 438.554C792.305 469.803 774.069 488.286 753.383 496.251C744.268 499.761 734.584 501.277 726.18 500.893C723.913 500.76 722.576 498.862 721.968 497.287C721.765 496.761 721.563 496.236 721.603 495.819ZM749.623 300.831C755.097 315.011 747.988 331.02 733.789 336.488C719.414 342.022 703.383 334.923 697.908 320.742C692.366 306.387 699.475 290.377 713.85 284.843C728.05 279.375 744.081 286.475 749.623 300.831Z" fill="black"/>
<path d="M662.321 487.891L660.186 487.169C619.79 473.506 608.845 439.099 618.006 412.087C626.624 386.674 653.638 366.096 694.211 379.818C738.343 394.745 726.981 434.681 724.993 440.546C722.22 448.721 716.549 454.33 704.844 454.333C695.516 454.348 681.685 451.849 672.311 449.075C669.464 448.112 668.996 446.567 669.007 444.194C668.86 437.607 669.397 424.912 669.638 424.201C670.301 422.246 672.026 421.839 674.52 422.088C684.497 423.086 685.863 423.151 686.707 420.663C687.249 419.064 685.797 412.234 678.323 409.706C669.781 406.817 660.131 411.873 656.395 422.892C652.116 435.509 656.548 452.856 678.792 460.379C680.038 460.801 681.461 461.282 682.767 461.526L683.123 461.646C685.614 462.489 688.097 465.111 687.073 468.132C686.47 469.91 677.745 480.429 673.027 485.569C670.639 487.931 667.482 489.636 662.321 487.891Z" fill="black"/>
<path d="M567.804 470.146H548.828C545.071 470.146 541.689 469.396 539.622 465.831L496.597 384.4C495.658 382.524 495.282 381.023 495.282 379.709C495.282 377.645 496.409 376.332 498.476 375.394C502.985 373.33 527.598 363.198 531.543 363.198C534.361 363.198 536.24 364.511 537.18 366.388L558.222 412.732C558.598 413.67 559.162 414.045 559.538 414.045C560.101 414.045 560.477 413.67 561.041 412.544C567.616 397.346 577.95 369.765 579.265 366.575C580.392 364.136 582.271 363.01 584.714 363.01C586.029 363.01 587.344 363.198 588.847 363.761L614.023 371.454C618.344 372.767 620.035 374.643 620.035 377.27C620.035 380.272 599.368 447.443 576.259 467.332C574.38 468.833 571.186 470.146 567.804 470.146Z" fill="black"/>
<path d="M436.804 474.837H434.737C430.604 474.837 428.725 474.086 427.598 470.897L419.331 449.132C419.143 448.569 418.955 448.006 418.955 447.631C418.955 444.816 422.713 444.441 424.968 444.441C436.053 444.254 441.313 439 441.313 434.497C441.313 432.058 438.871 429.056 436.24 425.678L431.168 420.049C422.901 410.668 419.519 402.6 419.519 395.47C419.519 374.268 450.144 363.01 474.756 363.01C482.083 363.01 483.962 363.761 485.277 367.138L493.732 388.903C494.108 389.654 494.108 390.216 494.108 390.779C494.108 392.843 492.041 393.594 489.599 393.594H488.847C477.574 393.594 473.253 397.346 473.253 401.099C473.253 404.289 476.071 407.854 483.211 415.734C491.853 425.115 495.611 433.559 495.611 440.689C495.611 462.829 461.98 474.837 436.804 474.837Z" fill="black"/>
<path d="M410.945 449.192L395.115 469.212C392.837 472.014 390.667 473.308 388.271 472.835C386.427 472.472 374.107 466.983 366.6 456.515C356.033 459.596 345.643 459.843 336.243 457.99C305.46 451.922 283.575 423.128 289.432 393.491C293.798 371.402 315.76 342.645 352.257 349.839C361.473 351.656 370.105 355.461 376.675 360.008C378.035 358.937 379.803 358.712 382.015 359.148L382.937 359.33L414.279 368.377C418.999 369.69 419.816 372.337 419.38 374.546L419.198 375.466C413.306 391.709 407.56 407.215 405.159 419.364C402.976 430.408 403.439 438.723 408.719 443.015C410.38 444.299 412.19 445.803 411.826 447.644C411.753 448.012 411.46 448.528 410.945 449.192ZM359.594 425.108C359.987 420.213 360.637 414.986 361.765 409.28C362.711 404.494 363.878 399.56 365.338 394.11C363.854 389.993 359.386 386.435 354.041 385.381C342.429 383.092 333.758 393.049 331.902 402.437C329.865 412.745 335.307 422.998 347.288 425.36C350.79 426.05 354.991 426.113 359.594 425.108Z" fill="black"/>
<path d="M284.77 467.068L247.213 471.014C245.158 471.23 243.299 469.727 243.083 467.674L227.024 315.223C226.788 312.984 228.293 311.128 230.349 310.912L267.906 306.966C269.961 306.751 271.819 308.253 272.055 310.492L288.114 462.944C288.33 464.996 286.825 466.853 284.77 467.068Z" fill="black"/>
<path d="M427.878 317.382C428.673 316.096 430.361 315.698 431.648 316.492C432.936 317.286 433.335 318.973 432.54 320.259L421.762 337.683L439.211 348.446C440.499 349.24 440.898 350.927 440.103 352.213C439.308 353.498 437.62 353.897 436.333 353.103L416.551 340.901C415.265 340.107 414.866 338.422 415.66 337.136L427.878 317.382ZM449.21 312.346C450.005 311.061 451.693 310.663 452.98 311.456L472.762 323.658C474.048 324.452 474.447 326.137 473.653 327.423L461.435 347.177C460.64 348.463 458.952 348.861 457.665 348.067C456.377 347.273 455.978 345.586 456.773 344.3L467.549 326.875L450.102 316.113C448.814 315.319 448.415 313.632 449.21 312.346Z" fill="black"/>
<path d="M583.944 551.6V566H581.304V551.6H583.944ZM590.184 557.336C590.184 556.168 589.912 555.272 589.368 554.648C588.824 554.024 588.056 553.712 587.064 553.712C586.072 553.712 585.304 554.032 584.76 554.672C584.216 555.296 583.944 556.184 583.944 557.336H582.504V552.8H584.28C584.6 552.288 585.072 551.896 585.696 551.624C586.336 551.352 587.072 551.216 587.904 551.216C588.88 551.216 589.736 551.44 590.472 551.888C591.224 552.336 591.8 552.968 592.2 553.784C592.616 554.6 592.824 555.544 592.824 556.616V566H590.184V557.336ZM599.064 557.336C599.064 556.168 598.792 555.272 598.248 554.648C597.704 554.024 596.936 553.712 595.944 553.712C594.952 553.712 594.184 554.032 593.64 554.672C593.096 555.296 592.824 556.184 592.824 557.336H591.384V553.04H592.536C592.904 552.48 593.432 552.04 594.12 551.72C594.808 551.384 595.576 551.216 596.424 551.216C597.464 551.216 598.384 551.44 599.184 551.888C599.984 552.336 600.6 552.968 601.032 553.784C601.48 554.6 601.704 555.544 601.704 556.616V566H599.064V557.336ZM607.037 551.6L611.597 564.8H608.765L604.157 551.6H607.037ZM612.413 568.16C612.157 568.832 611.837 569.392 611.453 569.84C611.085 570.288 610.645 570.624 610.133 570.848C609.637 571.072 609.077 571.184 608.453 571.184C607.637 571.184 606.933 571.032 606.341 570.728C605.749 570.424 605.277 569.976 604.925 569.384C604.589 568.792 604.389 568.08 604.325 567.248H606.773C606.965 567.776 607.181 568.16 607.421 568.4C607.677 568.656 608.005 568.784 608.405 568.784C608.821 568.784 609.157 568.664 609.413 568.424C609.669 568.2 609.893 567.824 610.085 567.296L615.077 551.6H617.741L612.413 568.16ZM640.06 565.04C640.06 566.256 639.764 567.328 639.172 568.256C638.596 569.184 637.772 569.904 636.7 570.416C635.628 570.928 634.396 571.184 633.004 571.184C631.772 571.184 630.66 570.984 629.668 570.584C628.692 570.2 627.9 569.648 627.292 568.928C626.7 568.224 626.348 567.408 626.236 566.48H628.828C629.148 567.184 629.676 567.736 630.412 568.136C631.148 568.536 632.012 568.736 633.004 568.736C634.364 568.736 635.436 568.4 636.22 567.728C637.02 567.072 637.42 566.176 637.42 565.04V563.504H637.084C636.732 564.048 636.156 564.488 635.356 564.824C634.572 565.16 633.708 565.328 632.764 565.328C631.468 565.328 630.324 565.04 629.332 564.464C628.356 563.872 627.596 563.048 627.052 561.992C626.508 560.936 626.236 559.712 626.236 558.32C626.236 556.912 626.508 555.672 627.052 554.6C627.596 553.528 628.356 552.696 629.332 552.104C630.324 551.512 631.468 551.216 632.764 551.216C633.708 551.216 634.572 551.392 635.356 551.744C636.156 552.096 636.732 552.56 637.084 553.136H637.42V551.6H640.06V565.04ZM628.924 558.32C628.924 559.744 629.308 560.872 630.076 561.704C630.844 562.52 631.9 562.928 633.244 562.928C634.588 562.928 635.644 562.52 636.412 561.704C637.18 560.872 637.564 559.744 637.564 558.32C637.564 556.896 637.18 555.776 636.412 554.96C635.644 554.128 634.588 553.712 633.244 553.712C631.9 553.712 630.844 554.128 630.076 554.96C629.308 555.776 628.924 556.896 628.924 558.32ZM647.319 551.6V566H644.679V551.6H647.319ZM645.999 549.392C645.391 549.392 644.903 549.224 644.535 548.888C644.167 548.536 643.983 548.08 643.983 547.52C643.983 546.96 644.167 546.512 644.535 546.176C644.903 545.824 645.391 545.648 645.999 545.648C646.607 545.648 647.095 545.824 647.463 546.176C647.831 546.512 648.015 546.96 648.015 547.52C648.015 548.08 647.831 548.536 647.463 548.888C647.095 549.224 646.607 549.392 645.999 549.392ZM657.825 566.384C656.369 566.384 655.241 565.92 654.441 564.992C653.657 564.048 653.265 562.704 653.265 560.96V554.096H650.385V551.6H653.265V547.856H655.905V551.6H661.905V554.096H655.905V560.96C655.905 561.936 656.073 562.672 656.409 563.168C656.761 563.648 657.265 563.888 657.921 563.888C658.641 563.888 659.217 563.648 659.649 563.168C660.081 562.688 660.385 561.952 660.561 560.96H662.913C662.849 562.704 662.377 564.048 661.497 564.992C660.617 565.92 659.393 566.384 657.825 566.384ZM668.624 545.648V566H665.984V545.648H668.624ZM675.584 557.696C675.584 556.416 675.28 555.432 674.672 554.744C674.08 554.056 673.224 553.712 672.104 553.712C670.984 553.712 670.12 554.056 669.512 554.744C668.92 555.432 668.624 556.416 668.624 557.696H667.904V552.8H668.96C669.392 552.288 669.952 551.896 670.64 551.624C671.344 551.352 672.112 551.216 672.944 551.216C673.984 551.216 674.904 551.456 675.704 551.936C676.504 552.416 677.12 553.096 677.552 553.976C678 554.84 678.224 555.84 678.224 556.976V566H675.584V557.696ZM691.961 566V551.6H694.601V566H691.961ZM685.001 559.904C685.001 561.184 685.297 562.168 685.889 562.856C686.497 563.544 687.361 563.888 688.481 563.888C689.601 563.888 690.457 563.544 691.049 562.856C691.657 562.168 691.961 561.184 691.961 559.904H692.681V564.8H691.625C691.193 565.312 690.625 565.704 689.921 565.976C689.233 566.248 688.473 566.384 687.641 566.384C686.601 566.384 685.681 566.144 684.881 565.664C684.081 565.184 683.457 564.512 683.009 563.648C682.577 562.768 682.361 561.76 682.361 560.624V551.6H685.001V559.904ZM706.706 566.384C705.762 566.384 704.898 566.216 704.114 565.88C703.33 565.544 702.69 565.072 702.194 564.464H701.858V566H699.218V545.648H701.858V553.136H702.194C702.69 552.528 703.33 552.056 704.114 551.72C704.898 551.384 705.762 551.216 706.706 551.216C708.018 551.216 709.17 551.536 710.162 552.176C711.17 552.8 711.946 553.688 712.49 554.84C713.05 555.976 713.33 557.296 713.33 558.8C713.33 560.304 713.05 561.632 712.49 562.784C711.946 563.92 711.17 564.808 710.162 565.448C709.17 566.072 708.018 566.384 706.706 566.384ZM701.762 558.8C701.762 560.368 702.162 561.608 702.962 562.52C703.762 563.432 704.85 563.888 706.226 563.888C707.602 563.888 708.69 563.432 709.49 562.52C710.29 561.608 710.69 560.368 710.69 558.8C710.69 557.232 710.29 555.992 709.49 555.08C708.69 554.168 707.602 553.712 706.226 553.712C704.85 553.712 703.762 554.168 702.962 555.08C702.162 555.992 701.762 557.232 701.762 558.8Z" fill="black"/>
<path d="M615.95 495.731C616.261 495.115 617.013 494.867 617.629 495.178C618.245 495.489 618.492 496.24 618.182 496.856L614.41 504.332C621.653 502.464 631.514 501.752 640.448 505.021C645.546 506.886 650.342 510.05 654.145 515.023C657.945 519.994 660.705 526.709 661.835 535.607C661.922 536.292 661.437 536.918 660.752 537.005C660.067 537.092 659.441 536.607 659.354 535.922C658.27 527.376 655.643 521.099 652.159 516.542C648.678 511.989 644.293 509.089 639.59 507.368C631.409 504.375 622.266 504.952 615.411 506.658L622.607 510.289C623.224 510.6 623.472 511.351 623.161 511.968C622.85 512.584 622.099 512.831 621.482 512.521L611.438 507.455C610.821 507.144 610.573 506.393 610.884 505.776L615.95 495.731Z" fill="black"/>
<g clip-path="url(#clip0_138_2)">
<path d="M560.365 469.216L562.954 479.484C562.971 479.553 562.987 479.623 562.999 479.693C563.153 480.601 563.498 481.466 564.012 482.229C564.527 482.993 565.199 483.639 565.982 484.124C566.871 484.673 567.369 485.679 567.267 486.717C567.164 487.756 566.479 488.646 565.5 489.012C561.591 490.471 558.204 492.332 556.139 495.19C554.176 497.908 553.087 501.989 554.769 508.659C555.532 511.682 557.431 514.295 560.071 515.96C560.958 516.519 561.445 517.536 561.33 518.576C561.081 520.811 561.522 523.052 562.563 525.015C562.568 525.013 562.574 525.01 562.579 525.007C563.802 524.394 565.889 522.996 568.731 519.846C569.263 519.258 570.024 518.928 570.817 518.942C576.836 519.05 582.776 517.557 588.026 514.615C588.718 514.227 589.543 514.158 590.29 514.425C594.288 515.855 596.79 516.099 598.158 516.061C598.165 516.06 598.171 516.06 598.178 516.06C598.164 513.839 597.485 511.657 596.207 509.806C595.611 508.944 595.561 507.818 596.077 506.906C597.623 504.172 598.05 500.945 597.266 497.904L597.262 497.889C595.596 491.28 592.715 488.221 589.691 486.753C586.505 485.207 582.623 485.15 578.462 485.664C577.431 485.791 576.416 485.327 575.841 484.463C575.267 483.599 575.232 482.484 575.75 481.585C576.205 480.796 576.489 479.919 576.582 479.014C576.675 478.108 576.577 477.193 576.293 476.329C576.273 476.268 576.254 476.206 576.239 476.144L573.65 465.875C573.28 464.409 574.171 462.921 575.638 462.552C577.105 462.184 578.594 463.073 578.963 464.539L580.132 469.173C582.192 468.307 584.09 467.887 585.874 467.857C588.589 467.812 590.752 468.668 592.51 469.718C593.37 470.231 594.142 470.796 594.815 471.307C595.531 471.851 596.062 472.275 596.634 472.682C597.763 473.485 598.396 473.715 598.916 473.714C600.429 473.712 601.657 474.934 601.66 476.445C601.663 477.956 600.437 479.183 598.924 479.186C596.62 479.19 594.8 478.096 593.455 477.14C592.791 476.668 592.077 476.104 591.496 475.663C590.873 475.189 590.293 474.771 589.698 474.416C588.546 473.729 587.385 473.306 585.967 473.329C584.841 473.348 583.387 473.656 581.491 474.565L581.541 474.761C582.03 476.316 582.201 477.954 582.033 479.576C582.022 479.688 582.005 479.8 581.99 479.911C585.326 479.836 588.839 480.256 592.086 481.833C596.601 484.024 600.147 488.212 602.188 495.133L602.576 496.553C603.57 500.423 603.214 504.499 601.595 508.119C603.373 511.343 604.037 515.081 603.451 518.747C603.323 519.55 602.843 520.255 602.143 520.67L600.745 518.317C602.142 520.67 602.14 520.672 602.138 520.673L602.132 520.677C602.129 520.678 602.125 520.679 602.122 520.681C602.115 520.685 602.108 520.69 602.101 520.694C602.087 520.702 602.072 520.711 602.057 520.719C602.025 520.737 601.99 520.756 601.952 520.775C601.876 520.814 601.787 520.856 601.684 520.9C601.478 520.988 601.218 521.082 600.901 521.171C600.267 521.349 599.415 521.5 598.312 521.531C596.307 521.587 593.485 521.248 589.615 519.978C584.158 522.814 578.112 524.334 571.961 524.417C569.154 527.367 566.829 529 565.036 529.898C564.049 530.393 563.227 530.663 562.584 530.806C562.264 530.877 561.991 530.917 561.768 530.937C561.656 530.947 561.557 530.952 561.471 530.954C561.428 530.955 561.389 530.955 561.353 530.955C561.335 530.954 561.317 530.954 561.301 530.954C561.293 530.954 561.285 530.952 561.277 530.952C561.273 530.952 561.269 530.953 561.265 530.953L561.259 530.952C561.257 530.951 561.258 530.896 561.342 528.865L561.255 530.952C560.441 530.918 559.685 530.523 559.191 529.876C556.937 526.925 555.749 523.32 555.786 519.64C552.665 517.235 550.427 513.843 549.456 509.995L549.121 508.552C547.627 501.452 548.753 496.06 551.694 491.99C553.803 489.07 556.695 487.054 559.671 485.569C559.603 485.474 559.533 485.382 559.468 485.285C558.55 483.924 557.926 482.387 557.628 480.774L555.051 470.552C554.681 469.086 555.572 467.598 557.04 467.229C558.507 466.861 559.995 467.75 560.365 469.216Z" fill="black"/>
</g>
<path d="M320.07 502.74L314.749 501.43C313.338 501.083 311.846 501.31 310.602 502.061C309.358 502.811 308.465 504.025 308.118 505.434C307.77 506.843 307.996 508.331 308.747 509.573C309.499 510.815 310.715 511.709 312.127 512.056C313.538 512.404 315.029 512.176 316.272 511.426C317.516 510.675 318.41 509.462 318.758 508.053L320.07 502.74ZM350.682 515.911C351.029 514.502 350.802 513.013 350.05 511.771C349.298 510.529 348.084 509.635 346.673 509.288L341.352 507.979L340.041 513.292C339.693 514.701 339.921 516.19 340.673 517.432C341.425 518.674 342.639 519.567 344.05 519.914C345.461 520.262 346.952 520.034 348.196 519.284C349.44 518.533 350.334 517.32 350.682 515.911ZM326.701 498.736L337.344 501.356L339.967 490.728L329.324 488.108L326.701 498.736ZM326.627 476.172C326.975 474.763 326.747 473.272 325.996 472.03C325.244 470.789 324.029 469.897 322.618 469.55C321.207 469.202 319.714 469.427 318.471 470.178C317.227 470.929 316.334 472.144 315.986 473.553C315.639 474.962 315.865 476.451 316.616 477.693C317.368 478.935 318.584 479.829 319.995 480.176L325.315 481.485L326.627 476.172ZM358.55 484.03C358.898 482.621 358.671 481.13 357.919 479.888C357.167 478.647 355.952 477.755 354.541 477.408C353.13 477.06 351.64 477.286 350.396 478.037C349.152 478.787 348.257 480.002 347.91 481.411L346.598 486.724L351.919 488.034C353.33 488.381 354.821 488.154 356.064 487.403C357.308 486.652 358.202 485.439 358.55 484.03ZM363.87 485.34C363.175 488.158 361.387 490.586 358.9 492.088C356.413 493.589 353.429 494.042 350.607 493.347L345.287 492.037L342.664 502.665L347.984 503.975C350.806 504.67 353.237 506.455 354.741 508.939C356.245 511.423 356.698 514.402 356.002 517.22C355.306 520.039 353.519 522.466 351.032 523.968C348.544 525.47 345.561 525.922 342.739 525.227C339.916 524.533 337.486 522.748 335.982 520.264C334.478 517.78 334.025 514.8 334.721 511.982L336.032 506.669L325.39 504.049L324.078 509.362C323.383 512.181 321.595 514.608 319.108 516.11C316.621 517.612 313.637 518.064 310.815 517.369C307.993 516.675 305.562 514.89 304.058 512.406C302.555 509.922 302.1 506.942 302.796 504.124C303.491 501.305 305.28 498.878 307.768 497.376C310.255 495.875 313.238 495.422 316.061 496.117L321.381 497.427L324.004 486.799L318.684 485.489C315.862 484.794 313.431 483.009 311.927 480.525C310.423 478.041 309.969 475.062 310.664 472.243C311.36 469.425 313.149 466.998 315.636 465.496C318.124 463.994 321.107 463.54 323.93 464.235C326.752 464.929 329.182 466.716 330.686 469.2C332.19 471.684 332.643 474.664 331.947 477.482L330.636 482.795L341.278 485.415L342.589 480.102C343.285 477.283 345.072 474.856 347.56 473.354C350.047 471.852 353.031 471.398 355.853 472.093C358.675 472.787 361.106 474.574 362.609 477.058C364.113 479.542 364.566 482.522 363.87 485.34Z" fill="black"/>
<path d="M310.824 551.6H313.464V552.752H315.36L313.944 553.592C313.992 552.856 314.216 552.28 314.616 551.864C315.032 551.432 315.568 551.216 316.224 551.216C316.848 551.216 317.368 551.456 317.784 551.936C318.2 552.416 318.456 553.064 318.552 553.88L317.064 552.872H320.16L318.816 553.64C318.864 552.904 319.112 552.32 319.56 551.888C320.024 551.44 320.608 551.216 321.312 551.216C322.144 551.216 322.808 551.568 323.304 552.272C323.816 552.96 324.072 553.888 324.072 555.056V566H321.552V556.088C321.552 555.432 321.432 554.944 321.192 554.624C320.952 554.288 320.592 554.12 320.112 554.12C319.648 554.12 319.296 554.288 319.056 554.624C318.816 554.944 318.696 555.432 318.696 556.088V566H316.2V556.088C316.2 555.432 316.08 554.944 315.84 554.624C315.6 554.288 315.248 554.12 314.784 554.12C314.304 554.12 313.944 554.288 313.704 554.624C313.464 554.944 313.344 555.432 313.344 556.088V566H310.824V551.6ZM327.437 551.6H330.269L333.965 562.376H335.645L334.901 564.8H332.021L327.437 551.6ZM340.997 551.6L335.693 568.088C335.373 569.064 334.893 569.824 334.253 570.368C333.613 570.912 332.869 571.184 332.021 571.184C330.805 571.184 329.845 570.848 329.141 570.176C328.437 569.504 328.037 568.528 327.941 567.248H330.341C330.533 567.776 330.741 568.16 330.965 568.4C331.205 568.64 331.525 568.76 331.925 568.76C332.277 568.76 332.557 568.648 332.765 568.424C332.989 568.2 333.189 567.832 333.365 567.32L338.381 551.6H340.997ZM364.478 561.584C364.702 562.336 365.11 562.912 365.702 563.312C366.294 563.712 367.054 563.912 367.982 563.912C368.942 563.912 369.678 563.744 370.19 563.408C370.702 563.056 370.958 562.56 370.958 561.92C370.958 561.488 370.75 561.128 370.334 560.84C369.918 560.552 369.302 560.352 368.486 560.24L366.734 559.976C365.166 559.736 364.006 559.272 363.254 558.584C362.502 557.896 362.126 556.936 362.126 555.704C362.126 554.312 362.638 553.216 363.662 552.416C364.702 551.616 366.126 551.216 367.934 551.216C369.774 551.216 371.23 551.664 372.302 552.56C373.374 553.456 373.942 554.704 374.006 556.304H371.606C371.382 555.456 370.958 554.808 370.334 554.36C369.71 553.912 368.894 553.688 367.886 553.688C366.878 553.688 366.102 553.864 365.558 554.216C365.014 554.552 364.742 555.04 364.742 555.68C364.742 556.112 364.95 556.472 365.366 556.76C365.782 557.048 366.398 557.248 367.214 557.36L368.966 557.624C370.55 557.864 371.71 558.328 372.446 559.016C373.198 559.704 373.574 560.664 373.574 561.896C373.574 562.824 373.342 563.624 372.878 564.296C372.43 564.968 371.79 565.488 370.958 565.856C370.126 566.208 369.126 566.384 367.958 566.384C366.166 566.384 364.75 565.96 363.71 565.112C362.686 564.264 362.126 563.088 362.03 561.584H364.478ZM380.515 557.336H389.179L388.291 558.584C388.291 556.968 388.003 555.736 387.427 554.888C386.851 554.04 386.011 553.616 384.907 553.616C383.707 553.616 382.771 554.064 382.099 554.96C381.427 555.84 381.091 557.08 381.091 558.68C381.091 560.392 381.427 561.704 382.099 562.616C382.771 563.528 383.731 563.984 384.979 563.984C385.795 563.984 386.507 563.784 387.115 563.384C387.723 562.968 388.235 562.368 388.651 561.584H391.123C390.883 562.576 390.475 563.432 389.899 564.152C389.339 564.872 388.635 565.424 387.787 565.808C386.955 566.192 386.019 566.384 384.979 566.384C383.635 566.384 382.475 566.08 381.499 565.472C380.539 564.864 379.803 563.984 379.291 562.832C378.779 561.68 378.523 560.296 378.523 558.68C378.523 557.144 378.779 555.824 379.291 554.72C379.819 553.6 380.563 552.736 381.523 552.128C382.483 551.52 383.611 551.216 384.907 551.216C386.139 551.216 387.187 551.504 388.051 552.08C388.915 552.656 389.579 553.496 390.043 554.6C390.507 555.688 390.739 557.008 390.739 558.56C390.739 558.736 390.731 558.92 390.715 559.112C390.715 559.304 390.707 559.488 390.691 559.664H380.515V557.336ZM400.775 547.856V551.6H407.255V554.072H400.775V561.272C400.775 562.12 400.951 562.776 401.303 563.24C401.655 563.688 402.167 563.912 402.839 563.912C403.543 563.912 404.087 563.672 404.471 563.192C404.871 562.696 405.167 561.952 405.359 560.96H407.687C407.607 562.72 407.143 564.064 406.295 564.992C405.447 565.92 404.263 566.384 402.743 566.384C401.271 566.384 400.135 565.944 399.335 565.064C398.535 564.184 398.135 562.952 398.135 561.368V554.072H394.967V551.6H398.135V547.856H400.775ZM423.916 551.6V566H421.276V564.92H420.556C420.188 565.384 419.716 565.744 419.14 566C418.58 566.256 417.948 566.384 417.244 566.384C416.252 566.384 415.38 566.16 414.628 565.712C413.892 565.264 413.316 564.632 412.9 563.816C412.484 563 412.276 562.04 412.276 560.936V551.6H414.916V560.216C414.916 561.416 415.18 562.328 415.708 562.952C416.252 563.56 417.044 563.864 418.084 563.864C419.124 563.864 419.916 563.56 420.46 562.952C421.004 562.328 421.276 561.416 421.276 560.216V551.6H423.916ZM429.129 570.8V551.6H431.769V552.92H432.489C432.809 552.392 433.289 551.976 433.929 551.672C434.569 551.368 435.273 551.216 436.041 551.216C437.241 551.216 438.281 551.528 439.161 552.152C440.041 552.76 440.721 553.632 441.201 554.768C441.681 555.904 441.921 557.248 441.921 558.8C441.921 560.352 441.681 561.696 441.201 562.832C440.721 563.968 440.041 564.848 439.161 565.472C438.281 566.08 437.241 566.384 436.041 566.384C435.273 566.384 434.569 566.232 433.929 565.928C433.289 565.608 432.809 565.192 432.489 564.68H431.769V570.8H429.129ZM435.489 563.912C436.689 563.912 437.617 563.464 438.273 562.568C438.945 561.672 439.281 560.416 439.281 558.8C439.281 557.184 438.945 555.928 438.273 555.032C437.617 554.136 436.689 553.688 435.489 553.688C434.273 553.688 433.329 554.136 432.657 555.032C432.001 555.928 431.673 557.184 431.673 558.8C431.673 560.416 432.001 561.672 432.657 562.568C433.329 563.464 434.273 563.912 435.489 563.912Z" fill="black"/>
<path d="M309.98 345.152V334.208C309.98 332.697 311.208 331.471 312.721 331.471C314.234 331.471 315.462 332.697 315.462 334.208V345.152C315.462 346.663 314.234 347.889 312.721 347.889C311.208 347.889 309.98 346.663 309.98 345.152ZM299.166 327.457C300.236 326.388 301.971 326.388 303.041 327.457C304.111 328.525 304.111 330.257 303.041 331.326L295.287 339.069C294.217 340.138 292.483 340.138 291.413 339.069C290.343 338.001 290.343 336.269 291.413 335.2L299.166 327.457ZM322.401 327.457C323.471 326.388 325.205 326.388 326.275 327.457L334.029 335.2C335.099 336.269 335.099 338.001 334.029 339.069C332.959 340.138 331.225 340.138 330.155 339.069L322.401 331.326C321.331 330.257 321.331 328.525 322.401 327.457ZM296.28 315.052C297.794 315.052 299.021 316.278 299.021 317.789C299.021 319.301 297.794 320.526 296.28 320.526H285.322C283.808 320.526 282.581 319.301 282.581 317.789C282.581 316.278 283.808 315.052 285.322 315.052H296.28ZM340.12 315.052C341.633 315.052 342.861 316.278 342.861 317.789C342.861 319.301 341.633 320.526 340.12 320.526H329.161C327.648 320.526 326.421 319.301 326.421 317.789C326.421 316.278 327.648 315.052 329.161 315.052H340.12ZM291.413 296.51C292.483 295.441 294.217 295.441 295.287 296.51L303.041 304.253C304.111 305.322 304.111 307.054 303.041 308.122C301.971 309.191 300.236 309.191 299.166 308.122L291.413 300.379C290.343 299.31 290.343 297.578 291.413 296.51ZM330.155 296.51C331.225 295.441 332.959 295.441 334.029 296.51C335.099 297.578 335.099 299.31 334.029 300.379L326.275 308.122C325.205 309.191 323.471 309.191 322.401 308.122C321.331 307.054 321.331 305.322 322.401 304.253L330.155 296.51ZM309.98 301.371V290.427C309.98 288.916 311.208 287.69 312.721 287.69C314.234 287.69 315.462 288.916 315.462 290.427V301.371C315.462 302.882 314.234 304.108 312.721 304.108C311.208 304.108 309.98 302.882 309.98 301.371Z" fill="black"/>
<path d="M1044.48 360.336C1043.52 360.336 1042.69 360.176 1041.98 359.856C1041.3 359.536 1040.77 359.072 1040.4 358.464C1040.03 357.84 1039.85 357.104 1039.85 356.256C1039.85 355.088 1040.22 354.144 1040.98 353.424C1041.73 352.688 1042.81 352.208 1044.22 351.984L1049.21 351.216V353.544L1044.6 354.264C1043.96 354.36 1043.48 354.568 1043.16 354.888C1042.84 355.192 1042.68 355.608 1042.68 356.136C1042.68 356.664 1042.89 357.096 1043.3 357.432C1043.74 357.752 1044.3 357.912 1044.98 357.912C1045.72 357.912 1046.39 357.76 1047 357.456C1047.61 357.152 1048.09 356.736 1048.44 356.208C1048.79 355.68 1048.97 355.096 1048.97 354.456V351.12C1048.97 350.016 1048.68 349.176 1048.1 348.6C1047.54 348.008 1046.73 347.712 1045.66 347.712C1044.52 347.712 1043.61 347.984 1042.92 348.528C1042.23 349.072 1041.77 349.856 1041.53 350.88H1038.98C1039.11 349.696 1039.46 348.68 1040.02 347.832C1040.58 346.984 1041.34 346.336 1042.3 345.888C1043.26 345.44 1044.39 345.216 1045.7 345.216C1047.58 345.216 1049.02 345.688 1050.02 346.632C1051.05 347.576 1051.56 348.912 1051.56 350.64V360H1048.97V358.464H1048.63C1048.22 359.072 1047.65 359.536 1046.93 359.856C1046.22 360.176 1045.41 360.336 1044.48 360.336ZM1063.42 360.384C1062.48 360.384 1061.62 360.216 1060.83 359.88C1060.05 359.544 1059.41 359.072 1058.91 358.464H1058.58V360H1055.94V339.648H1058.58V347.136H1058.91C1059.41 346.528 1060.05 346.056 1060.83 345.72C1061.62 345.384 1062.48 345.216 1063.42 345.216C1064.74 345.216 1065.89 345.536 1066.88 346.176C1067.89 346.8 1068.66 347.688 1069.21 348.84C1069.77 349.976 1070.05 351.296 1070.05 352.8C1070.05 354.304 1069.77 355.632 1069.21 356.784C1068.66 357.92 1067.89 358.808 1066.88 359.448C1065.89 360.072 1064.74 360.384 1063.42 360.384ZM1058.48 352.8C1058.48 354.368 1058.88 355.608 1059.68 356.52C1060.48 357.432 1061.57 357.888 1062.94 357.888C1064.32 357.888 1065.41 357.432 1066.21 356.52C1067.01 355.608 1067.41 354.368 1067.41 352.8C1067.41 351.232 1067.01 349.992 1066.21 349.08C1065.41 348.168 1064.32 347.712 1062.94 347.712C1061.57 347.712 1060.48 348.168 1059.68 349.08C1058.88 349.992 1058.48 351.232 1058.48 352.8ZM1079.85 360.384C1078.41 360.384 1077.14 360.072 1076.03 359.448C1074.94 358.808 1074.1 357.92 1073.49 356.784C1072.9 355.632 1072.6 354.304 1072.6 352.8C1072.6 351.296 1072.9 349.976 1073.49 348.84C1074.1 347.688 1074.94 346.8 1076.03 346.176C1077.14 345.536 1078.41 345.216 1079.85 345.216C1081.29 345.216 1082.55 345.536 1083.64 346.176C1084.74 346.8 1085.59 347.688 1086.18 348.84C1086.79 349.976 1087.1 351.296 1087.1 352.8C1087.1 354.304 1086.79 355.632 1086.18 356.784C1085.59 357.92 1084.74 358.808 1083.64 359.448C1082.55 360.072 1081.29 360.384 1079.85 360.384ZM1079.85 357.888C1080.79 357.888 1081.61 357.688 1082.3 357.288C1083 356.872 1083.54 356.28 1083.9 355.512C1084.27 354.744 1084.46 353.84 1084.46 352.8C1084.46 351.76 1084.27 350.856 1083.9 350.088C1083.54 349.32 1083 348.736 1082.3 348.336C1081.61 347.92 1080.79 347.712 1079.85 347.712C1078.9 347.712 1078.08 347.92 1077.38 348.336C1076.69 348.736 1076.16 349.32 1075.79 350.088C1075.42 350.856 1075.24 351.76 1075.24 352.8C1075.24 353.84 1075.42 354.744 1075.79 355.512C1076.16 356.28 1076.69 356.872 1077.38 357.288C1078.08 357.688 1078.9 357.888 1079.85 357.888ZM1100.03 360V345.6H1102.67V360H1100.03ZM1093.07 353.904C1093.07 355.184 1093.37 356.168 1093.96 356.856C1094.57 357.544 1095.43 357.888 1096.55 357.888C1097.67 357.888 1098.53 357.544 1099.12 356.856C1099.73 356.168 1100.03 355.184 1100.03 353.904H1100.75V358.8H1099.7C1099.26 359.312 1098.7 359.704 1097.99 359.976C1097.3 360.248 1096.54 360.384 1095.71 360.384C1094.67 360.384 1093.75 360.144 1092.95 359.664C1092.15 359.184 1091.53 358.512 1091.08 357.648C1090.65 356.768 1090.43 355.76 1090.43 354.624V345.6H1093.07V353.904ZM1113.19 360.384C1111.74 360.384 1110.61 359.92 1109.81 358.992C1109.02 358.048 1108.63 356.704 1108.63 354.96V348.096H1105.75V345.6H1108.63V341.856H1111.27V345.6H1117.27V348.096H1111.27V354.96C1111.27 355.936 1111.44 356.672 1111.78 357.168C1112.13 357.648 1112.63 357.888 1113.29 357.888C1114.01 357.888 1114.58 357.648 1115.02 357.168C1115.45 356.688 1115.75 355.952 1115.93 354.96H1118.28C1118.22 356.704 1117.74 358.048 1116.86 358.992C1115.98 359.92 1114.76 360.384 1113.19 360.384ZM1130.95 345.6V360H1128.31V345.6H1130.95ZM1137.19 351.336C1137.19 350.168 1136.92 349.272 1136.38 348.648C1135.83 348.024 1135.06 347.712 1134.07 347.712C1133.08 347.712 1132.31 348.032 1131.77 348.672C1131.22 349.296 1130.95 350.184 1130.95 351.336H1129.51V346.8H1131.29C1131.61 346.288 1132.08 345.896 1132.7 345.624C1133.34 345.352 1134.08 345.216 1134.91 345.216C1135.89 345.216 1136.74 345.44 1137.48 345.888C1138.23 346.336 1138.81 346.968 1139.21 347.784C1139.62 348.6 1139.83 349.544 1139.83 350.616V360H1137.19V351.336ZM1146.07 351.336C1146.07 350.168 1145.8 349.272 1145.26 348.648C1144.71 348.024 1143.94 347.712 1142.95 347.712C1141.96 347.712 1141.19 348.032 1140.65 348.672C1140.1 349.296 1139.83 350.184 1139.83 351.336H1138.39V347.04H1139.54C1139.91 346.48 1140.44 346.04 1141.13 345.72C1141.82 345.384 1142.58 345.216 1143.43 345.216C1144.47 345.216 1145.39 345.44 1146.19 345.888C1146.99 346.336 1147.61 346.968 1148.04 347.784C1148.49 348.6 1148.71 349.544 1148.71 350.616V360H1146.07V351.336ZM1164.17 351.312L1163.29 352.68C1163.29 351.096 1162.92 349.864 1162.18 348.984C1161.46 348.104 1160.44 347.664 1159.11 347.664C1157.73 347.664 1156.65 348.12 1155.85 349.032C1155.05 349.928 1154.65 351.144 1154.65 352.68C1154.65 354.344 1155.05 355.64 1155.85 356.568C1156.65 357.48 1157.77 357.936 1159.23 357.936C1160.21 357.936 1161.08 357.728 1161.85 357.312C1162.63 356.896 1163.24 356.32 1163.67 355.584H1166.17C1165.86 356.608 1165.38 357.48 1164.73 358.2C1164.07 358.904 1163.28 359.448 1162.35 359.832C1161.42 360.2 1160.38 360.384 1159.23 360.384C1157.76 360.384 1156.48 360.08 1155.39 359.472C1154.32 358.848 1153.49 357.96 1152.92 356.808C1152.34 355.64 1152.05 354.264 1152.05 352.68C1152.05 351.208 1152.34 349.904 1152.92 348.768C1153.51 347.632 1154.34 346.76 1155.41 346.152C1156.49 345.528 1157.72 345.216 1159.11 345.216C1160.45 345.216 1161.62 345.52 1162.61 346.128C1163.62 346.72 1164.39 347.576 1164.92 348.696C1165.46 349.816 1165.73 351.128 1165.73 352.632C1165.73 352.872 1165.72 353.216 1165.69 353.664H1154.17V351.312H1164.17Z" fill="black"/>
<path d="M1073.74 371.201C1074.04 370.577 1074.78 370.311 1075.41 370.605C1076.03 370.9 1076.3 371.645 1076 372.269C1070.33 384.274 1060.1 392.605 1048.86 395.124C1038.34 397.481 1027.05 394.72 1017.99 385.299L1017.26 393.64C1017.2 394.327 1016.59 394.836 1015.9 394.775C1015.21 394.715 1014.71 394.108 1014.77 393.42L1015.75 382.214C1015.82 381.526 1016.42 381.018 1017.11 381.078L1028.32 382.067C1029 382.128 1029.51 382.734 1029.45 383.422C1029.39 384.109 1028.78 384.618 1028.1 384.558L1020.07 383.849C1028.48 392.418 1038.77 394.825 1048.31 392.685C1058.72 390.35 1068.37 382.578 1073.74 371.201Z" fill="black"/>
<path d="M1005.1 374.39C1005.1 364.87 997.374 357.153 987.841 357.153C978.308 357.153 970.581 364.87 970.581 374.39C970.581 383.911 978.308 391.629 987.841 391.629C997.374 391.629 1005.1 383.911 1005.1 374.39ZM985.924 382.052V374.39C985.924 373.333 986.782 372.476 987.841 372.476C988.9 372.476 989.76 373.333 989.76 374.39V382.052C989.76 383.11 988.9 383.968 987.841 383.968C986.782 383.968 985.924 383.109 985.924 382.052ZM987.86 364.815C988.919 364.815 989.779 365.671 989.779 366.729C989.779 367.787 988.919 368.645 987.86 368.645H987.841C986.782 368.645 985.924 367.787 985.924 366.729C985.924 365.671 986.782 364.815 987.841 364.815H987.86ZM1008.94 374.39C1008.94 386.026 999.493 395.46 987.841 395.46C976.189 395.46 966.743 386.026 966.743 374.39C966.743 362.754 976.189 353.321 987.841 353.321C999.493 353.321 1008.94 362.754 1008.94 374.39Z" fill="black"/>
<path d="M813.953 457.846C814.738 457.062 815.919 456.83 816.944 457.256L863.442 476.6C864.494 477.038 865.164 478.082 865.126 479.219C865.088 480.357 864.348 481.351 863.268 481.717L847.191 487.169L861.667 501.627C862.737 502.695 862.737 504.427 861.667 505.496C860.597 506.564 858.863 506.564 857.793 505.496L843.315 491.039L837.857 507.095C837.49 508.173 836.494 508.912 835.355 508.95C834.216 508.989 833.171 508.319 832.733 507.269L813.362 460.833C812.936 459.81 813.168 458.63 813.953 457.846ZM834.999 498.474L839.544 485.115L839.665 484.821C839.98 484.157 840.553 483.642 841.259 483.403L854.635 478.864L820.977 464.86L834.999 498.474Z" fill="black"/>
<path d="M510.944 256.6V271H508.304V256.6H510.944ZM517.184 262.336C517.184 261.168 516.912 260.272 516.368 259.648C515.824 259.024 515.056 258.712 514.064 258.712C513.072 258.712 512.304 259.032 511.76 259.672C511.216 260.296 510.944 261.184 510.944 262.336H509.504V257.8H511.28C511.6 257.288 512.072 256.896 512.696 256.624C513.336 256.352 514.072 256.216 514.904 256.216C515.88 256.216 516.736 256.44 517.472 256.888C518.224 257.336 518.8 257.968 519.2 258.784C519.616 259.6 519.824 260.544 519.824 261.616V271H517.184V262.336ZM526.064 262.336C526.064 261.168 525.792 260.272 525.248 259.648C524.704 259.024 523.936 258.712 522.944 258.712C521.952 258.712 521.184 259.032 520.64 259.672C520.096 260.296 519.824 261.184 519.824 262.336H518.384V258.04H519.536C519.904 257.48 520.432 257.04 521.12 256.72C521.808 256.384 522.576 256.216 523.424 256.216C524.464 256.216 525.384 256.44 526.184 256.888C526.984 257.336 527.6 257.968 528.032 258.784C528.48 259.6 528.704 260.544 528.704 261.616V271H526.064V262.336ZM534.037 256.6L538.597 269.8H535.765L531.157 256.6H534.037ZM539.413 273.16C539.157 273.832 538.837 274.392 538.453 274.84C538.085 275.288 537.645 275.624 537.133 275.848C536.637 276.072 536.077 276.184 535.453 276.184C534.637 276.184 533.933 276.032 533.341 275.728C532.749 275.424 532.277 274.976 531.925 274.384C531.589 273.792 531.389 273.08 531.325 272.248H533.773C533.965 272.776 534.181 273.16 534.421 273.4C534.677 273.656 535.005 273.784 535.405 273.784C535.821 273.784 536.157 273.664 536.413 273.424C536.669 273.2 536.893 272.824 537.085 272.296L542.077 256.6H544.741L539.413 273.16ZM515.792 285.216C517.104 285.216 518.256 285.536 519.248 286.176C520.256 286.8 521.032 287.688 521.576 288.84C522.136 289.976 522.416 291.296 522.416 292.8C522.416 294.304 522.136 295.632 521.576 296.784C521.032 297.92 520.256 298.808 519.248 299.448C518.256 300.072 517.104 300.384 515.792 300.384C514.848 300.384 513.984 300.216 513.2 299.88C512.416 299.544 511.776 299.072 511.28 298.464H510.944V304.8H508.304V285.6H510.944V287.136H511.28C511.776 286.528 512.416 286.056 513.2 285.72C513.984 285.384 514.848 285.216 515.792 285.216ZM510.848 292.8C510.848 294.368 511.248 295.608 512.048 296.52C512.848 297.432 513.936 297.888 515.312 297.888C516.688 297.888 517.776 297.432 518.576 296.52C519.376 295.608 519.776 294.368 519.776 292.8C519.776 291.232 519.376 289.992 518.576 289.08C517.776 288.168 516.688 287.712 515.312 287.712C513.936 287.712 512.848 288.168 512.048 289.08C511.248 289.992 510.848 291.232 510.848 292.8ZM525.999 285.6H528.639V286.8H528.975C529.311 286.288 529.759 285.896 530.319 285.624C530.879 285.352 531.511 285.216 532.215 285.216C533.495 285.216 534.503 285.656 535.239 286.536C535.991 287.416 536.367 288.624 536.367 290.16V291.312H533.631V290.544C533.631 289.584 533.447 288.872 533.079 288.408C532.727 287.944 532.183 287.712 531.447 287.712C530.487 287.712 529.775 288.088 529.311 288.84C528.863 289.592 528.639 290.752 528.639 292.32V300H525.999V285.6ZM545.645 300.384C544.205 300.384 542.933 300.072 541.829 299.448C540.741 298.808 539.893 297.92 539.285 296.784C538.693 295.632 538.397 294.304 538.397 292.8C538.397 291.296 538.693 289.976 539.285 288.84C539.893 287.688 540.741 286.8 541.829 286.176C542.933 285.536 544.205 285.216 545.645 285.216C547.085 285.216 548.349 285.536 549.437 286.176C550.541 286.8 551.389 287.688 551.981 288.84C552.589 289.976 552.893 291.296 552.893 292.8C552.893 294.304 552.589 295.632 551.981 296.784C551.389 297.92 550.541 298.808 549.437 299.448C548.349 300.072 547.085 300.384 545.645 300.384ZM545.645 297.888C546.589 297.888 547.405 297.688 548.093 297.288C548.797 296.872 549.333 296.28 549.701 295.512C550.069 294.744 550.253 293.84 550.253 292.8C550.253 291.76 550.069 290.856 549.701 290.088C549.333 289.32 548.797 288.736 548.093 288.336C547.405 287.92 546.589 287.712 545.645 287.712C544.701 287.712 543.877 287.92 543.173 288.336C542.485 288.736 541.957 289.32 541.589 290.088C541.221 290.856 541.037 291.76 541.037 292.8C541.037 293.84 541.221 294.744 541.589 295.512C541.957 296.28 542.485 296.872 543.173 297.288C543.877 297.688 544.701 297.888 545.645 297.888ZM559.732 285.6V300.624C559.732 302.032 559.348 303.144 558.58 303.96C557.812 304.776 556.764 305.184 555.436 305.184C554.156 305.184 553.132 304.864 552.364 304.224C551.596 303.584 551.188 302.704 551.14 301.584H553.636C553.764 301.968 553.972 302.264 554.26 302.472C554.564 302.68 554.956 302.784 555.436 302.784C555.964 302.784 556.372 302.592 556.66 302.208C556.948 301.84 557.092 301.312 557.092 300.624V285.6H559.732ZM558.412 283.392C557.804 283.392 557.316 283.224 556.948 282.888C556.58 282.536 556.396 282.08 556.396 281.52C556.396 280.96 556.58 280.512 556.948 280.176C557.316 279.824 557.804 279.648 558.412 279.648C559.02 279.648 559.508 279.824 559.876 280.176C560.244 280.512 560.428 280.96 560.428 281.52C560.428 282.08 560.244 282.536 559.876 282.888C559.508 283.224 559.02 283.392 558.412 283.392ZM575.431 291.312L574.543 292.68C574.543 291.096 574.175 289.864 573.439 288.984C572.719 288.104 571.695 287.664 570.367 287.664C568.991 287.664 567.903 288.12 567.103 289.032C566.303 289.928 565.903 291.144 565.903 292.68C565.903 294.344 566.303 295.64 567.103 296.568C567.903 297.48 569.031 297.936 570.487 297.936C571.463 297.936 572.335 297.728 573.103 297.312C573.887 296.896 574.495 296.32 574.927 295.584H577.423C577.119 296.608 576.639 297.48 575.983 298.2C575.327 298.904 574.535 299.448 573.607 299.832C572.679 300.2 571.639 300.384 570.487 300.384C569.015 300.384 567.735 300.08 566.647 299.472C565.575 298.848 564.751 297.96 564.175 296.808C563.599 295.64 563.311 294.264 563.311 292.68C563.311 291.208 563.599 289.904 564.175 288.768C564.767 287.632 565.599 286.76 566.671 286.152C567.743 285.528 568.975 285.216 570.367 285.216C571.711 285.216 572.879 285.52 573.871 286.128C574.879 286.72 575.647 287.576 576.175 288.696C576.719 289.816 576.991 291.128 576.991 292.632C576.991 292.872 576.975 293.216 576.943 293.664H565.423V291.312H575.431ZM586.68 300.384C585.272 300.384 584.032 300.072 582.96 299.448C581.904 298.824 581.08 297.944 580.488 296.808C579.896 295.672 579.6 294.36 579.6 292.872C579.6 291.352 579.904 290.016 580.512 288.864C581.136 287.712 582.008 286.816 583.128 286.176C584.248 285.536 585.544 285.216 587.016 285.216C588.296 285.216 589.432 285.464 590.424 285.96C591.432 286.456 592.224 287.152 592.8 288.048C593.392 288.944 593.712 289.984 593.76 291.168H591.336C591.112 290.096 590.608 289.256 589.824 288.648C589.056 288.024 588.088 287.712 586.92 287.712C585.96 287.712 585.128 287.92 584.424 288.336C583.72 288.752 583.176 289.352 582.792 290.136C582.424 290.904 582.24 291.816 582.24 292.872C582.24 293.912 582.416 294.808 582.768 295.56C583.136 296.312 583.648 296.888 584.304 297.288C584.976 297.688 585.768 297.888 586.68 297.888C587.752 297.888 588.656 297.624 589.392 297.096C590.128 296.552 590.616 295.808 590.856 294.864H593.28C593.216 295.952 592.896 296.92 592.32 297.768C591.744 298.6 590.968 299.248 589.992 299.712C589.016 300.16 587.912 300.384 586.68 300.384ZM602.755 300.384C601.299 300.384 600.171 299.92 599.371 298.992C598.587 298.048 598.195 296.704 598.195 294.96V288.096H595.315V285.6H598.195V281.856H600.835V285.6H606.835V288.096H600.835V294.96C600.835 295.936 601.003 296.672 601.339 297.168C601.691 297.648 602.195 297.888 602.851 297.888C603.571 297.888 604.147 297.648 604.579 297.168C605.011 296.688 605.315 295.952 605.491 294.96H607.843C607.779 296.704 607.307 298.048 606.427 298.992C605.547 299.92 604.323 300.384 602.755 300.384ZM612.569 295.584C612.809 296.32 613.265 296.888 613.937 297.288C614.625 297.688 615.505 297.888 616.577 297.888C617.697 297.888 618.537 297.72 619.097 297.384C619.657 297.048 619.937 296.544 619.937 295.872C619.937 295.456 619.705 295.112 619.241 294.84C618.793 294.568 618.113 294.368 617.201 294.24L615.137 293.952C613.441 293.712 612.201 293.264 611.417 292.608C610.633 291.936 610.241 290.992 610.241 289.776C610.241 288.816 610.489 288 610.985 287.328C611.481 286.64 612.193 286.12 613.121 285.768C614.065 285.4 615.201 285.216 616.529 285.216C617.841 285.216 618.977 285.416 619.937 285.816C620.913 286.216 621.665 286.8 622.193 287.568C622.721 288.336 623.009 289.248 623.057 290.304H620.657C620.417 289.472 619.945 288.832 619.241 288.384C618.537 287.936 617.617 287.712 616.481 287.712C615.297 287.712 614.401 287.88 613.793 288.216C613.185 288.552 612.881 289.056 612.881 289.728C612.881 290.144 613.105 290.488 613.553 290.76C614.017 291.032 614.705 291.232 615.617 291.36L617.681 291.648C619.377 291.888 620.617 292.344 621.401 293.016C622.185 293.672 622.577 294.608 622.577 295.824C622.577 296.784 622.337 297.608 621.857 298.296C621.377 298.968 620.681 299.488 619.769 299.856C618.873 300.208 617.793 300.384 616.529 300.384C615.233 300.384 614.113 300.2 613.169 299.832C612.241 299.448 611.513 298.896 610.985 298.176C610.473 297.456 610.193 296.592 610.145 295.584H612.569Z" fill="black"/>
<path d="M567.052 305.877C567.185 305.2 567.841 304.758 568.519 304.891C569.196 305.024 569.638 305.681 569.505 306.358C568.109 313.477 568.854 323.282 575.284 329.93C581.376 336.229 592.947 340.068 613.864 335.541L606.878 331.294C606.288 330.936 606.101 330.167 606.459 329.578C606.818 328.988 607.587 328.799 608.177 329.158L617.791 335.001C618.381 335.359 618.568 336.128 618.21 336.718L612.367 346.332C612.009 346.922 611.239 347.109 610.649 346.751C610.06 346.392 609.872 345.623 610.23 345.034L614.533 337.953C593.121 342.613 580.456 338.872 573.487 331.668C566.264 324.199 565.573 313.418 567.052 305.877Z" fill="black"/>
<path d="M646.828 304.64C648.209 304.235 649.671 304.203 651.069 304.54L651.07 304.537L672.558 309.654L672.571 309.656L673.091 309.8C674.03 310.094 674.905 310.558 675.68 311.16C675.888 311.273 676.086 311.413 676.266 311.584C676.416 311.727 676.543 311.885 676.654 312.051C677.517 312.979 678.155 314.095 678.514 315.315L684.682 336.327C685.086 337.709 685.12 339.172 684.779 340.571C684.437 341.969 683.734 343.253 682.739 344.295L682.729 344.303L667.415 360.185C666.723 360.909 665.907 361.494 665.009 361.922C664.695 362.235 664.301 362.477 663.845 362.611C663.389 362.744 662.926 362.753 662.493 362.659C661.506 362.782 660.502 362.732 659.529 362.496L659.529 362.494L638.052 357.383L638.041 357.38C636.641 357.04 635.354 356.338 634.311 355.345C633.268 354.352 632.503 353.102 632.096 351.721L625.928 330.709C625.572 329.49 625.507 328.206 625.73 326.96C625.734 326.761 625.756 326.558 625.806 326.356C625.865 326.113 625.957 325.887 626.073 325.679C626.459 324.586 627.068 323.583 627.873 322.741L627.881 322.733L634.991 315.357C635.25 314.808 635.681 314.375 636.199 314.104L643.204 306.84L643.205 306.842C644.199 305.804 645.448 305.044 646.828 304.64ZM637.355 350.176L637.477 350.512C637.622 350.839 637.831 351.136 638.092 351.384C638.438 351.714 638.865 351.946 639.33 352.06L659.288 356.81L653.129 335.826L631.604 330.583L637.355 350.176ZM658.387 334.287L664.547 355.271L678.774 340.517C679.106 340.17 679.341 339.741 679.455 339.275C679.569 338.81 679.557 338.323 679.423 337.863L673.671 318.268L658.387 334.287ZM633.015 325.295L654.422 330.509L659.894 324.774L638.512 319.595L633.015 325.295ZM648.37 309.892C647.909 310.028 647.492 310.281 647.16 310.629L647.151 310.637L642.914 315.03L664.26 320.2L669.623 314.579L649.801 309.861L649.789 309.859C649.321 309.746 648.832 309.757 648.37 309.892Z" fill="black"/>
<path d="M871.307 282.384C869.899 282.384 868.659 282.072 867.587 281.448C866.531 280.824 865.707 279.944 865.115 278.808C864.523 277.672 864.227 276.36 864.227 274.872C864.227 273.352 864.531 272.016 865.139 270.864C865.763 269.712 866.635 268.816 867.755 268.176C868.875 267.536 870.171 267.216 871.643 267.216C872.923 267.216 874.059 267.464 875.051 267.96C876.059 268.456 876.851 269.152 877.427 270.048C878.019 270.944 878.339 271.984 878.387 273.168H875.963C875.739 272.096 875.235 271.256 874.451 270.648C873.683 270.024 872.715 269.712 871.547 269.712C870.587 269.712 869.755 269.92 869.051 270.336C868.347 270.752 867.803 271.352 867.419 272.136C867.051 272.904 866.867 273.816 866.867 274.872C866.867 275.912 867.043 276.808 867.395 277.56C867.763 278.312 868.275 278.888 868.931 279.288C869.603 279.688 870.395 279.888 871.307 279.888C872.379 279.888 873.283 279.624 874.019 279.096C874.755 278.552 875.243 277.808 875.483 276.864H877.907C877.843 277.952 877.523 278.92 876.947 279.768C876.371 280.6 875.595 281.248 874.619 281.712C873.643 282.16 872.539 282.384 871.307 282.384ZM887.694 282.384C886.254 282.384 884.982 282.072 883.878 281.448C882.79 280.808 881.942 279.92 881.334 278.784C880.742 277.632 880.446 276.304 880.446 274.8C880.446 273.296 880.742 271.976 881.334 270.84C881.942 269.688 882.79 268.8 883.878 268.176C884.982 267.536 886.254 267.216 887.694 267.216C889.134 267.216 890.398 267.536 891.486 268.176C892.59 268.8 893.438 269.688 894.03 270.84C894.638 271.976 894.942 273.296 894.942 274.8C894.942 276.304 894.638 277.632 894.03 278.784C893.438 279.92 892.59 280.808 891.486 281.448C890.398 282.072 889.134 282.384 887.694 282.384ZM887.694 279.888C888.638 279.888 889.454 279.688 890.142 279.288C890.846 278.872 891.382 278.28 891.75 277.512C892.118 276.744 892.302 275.84 892.302 274.8C892.302 273.76 892.118 272.856 891.75 272.088C891.382 271.32 890.846 270.736 890.142 270.336C889.454 269.92 888.638 269.712 887.694 269.712C886.75 269.712 885.926 269.92 885.222 270.336C884.534 270.736 884.006 271.32 883.638 272.088C883.27 272.856 883.086 273.76 883.086 274.8C883.086 275.84 883.27 276.744 883.638 277.512C884.006 278.28 884.534 278.872 885.222 279.288C885.926 279.688 886.75 279.888 887.694 279.888ZM901.157 267.6V282H898.517V267.6H901.157ZM908.117 273.696C908.117 272.416 907.813 271.432 907.205 270.744C906.613 270.056 905.757 269.712 904.637 269.712C903.517 269.712 902.653 270.056 902.045 270.744C901.453 271.432 901.157 272.416 901.157 273.696H900.437V268.8H901.493C901.925 268.288 902.485 267.896 903.173 267.624C903.877 267.352 904.645 267.216 905.477 267.216C906.517 267.216 907.437 267.456 908.237 267.936C909.037 268.416 909.653 269.096 910.085 269.976C910.533 270.84 910.757 271.84 910.757 272.976V282H908.117V273.696ZM920.803 282.384C919.347 282.384 918.219 281.92 917.419 280.992C916.635 280.048 916.243 278.704 916.243 276.96V270.096H913.363V267.6H916.243V263.856H918.883V267.6H924.883V270.096H918.883V276.96C918.883 277.936 919.051 278.672 919.387 279.168C919.739 279.648 920.243 279.888 920.899 279.888C921.619 279.888 922.195 279.648 922.627 279.168C923.059 278.688 923.363 277.952 923.539 276.96H925.891C925.827 278.704 925.355 280.048 924.475 280.992C923.595 281.92 922.371 282.384 920.803 282.384ZM933.138 282.336C932.178 282.336 931.346 282.176 930.642 281.856C929.954 281.536 929.426 281.072 929.058 280.464C928.69 279.84 928.506 279.104 928.506 278.256C928.506 277.088 928.882 276.144 929.634 275.424C930.386 274.688 931.466 274.208 932.874 273.984L937.866 273.216V275.544L933.258 276.264C932.618 276.36 932.138 276.568 931.818 276.888C931.498 277.192 931.338 277.608 931.338 278.136C931.338 278.664 931.546 279.096 931.962 279.432C932.394 279.752 932.954 279.912 933.642 279.912C934.378 279.912 935.05 279.76 935.658 279.456C936.266 279.152 936.746 278.736 937.098 278.208C937.45 277.68 937.626 277.096 937.626 276.456V273.12C937.626 272.016 937.338 271.176 936.762 270.6C936.202 270.008 935.386 269.712 934.314 269.712C933.178 269.712 932.266 269.984 931.578 270.528C930.89 271.072 930.426 271.856 930.186 272.88H927.642C927.77 271.696 928.114 270.68 928.674 269.832C929.234 268.984 929.994 268.336 930.954 267.888C931.914 267.44 933.05 267.216 934.362 267.216C936.234 267.216 937.674 267.688 938.682 268.632C939.706 269.576 940.218 270.912 940.218 272.64V282H937.626V280.464H937.29C936.874 281.072 936.306 281.536 935.586 281.856C934.882 282.176 934.066 282.336 933.138 282.336ZM950.643 282.384C949.235 282.384 947.995 282.072 946.923 281.448C945.867 280.824 945.043 279.944 944.451 278.808C943.859 277.672 943.563 276.36 943.563 274.872C943.563 273.352 943.867 272.016 944.475 270.864C945.099 269.712 945.971 268.816 947.091 268.176C948.211 267.536 949.507 267.216 950.979 267.216C952.259 267.216 953.395 267.464 954.387 267.96C955.395 268.456 956.187 269.152 956.763 270.048C957.355 270.944 957.675 271.984 957.723 273.168H955.299C955.075 272.096 954.571 271.256 953.787 270.648C953.019 270.024 952.051 269.712 950.883 269.712C949.923 269.712 949.091 269.92 948.387 270.336C947.683 270.752 947.139 271.352 946.755 272.136C946.387 272.904 946.203 273.816 946.203 274.872C946.203 275.912 946.379 276.808 946.731 277.56C947.099 278.312 947.611 278.888 948.267 279.288C948.939 279.688 949.731 279.888 950.643 279.888C951.715 279.888 952.619 279.624 953.355 279.096C954.091 278.552 954.579 277.808 954.819 276.864H957.243C957.179 277.952 956.859 278.92 956.283 279.768C955.707 280.6 954.931 281.248 953.955 281.712C952.979 282.16 951.875 282.384 950.643 282.384ZM966.718 282.384C965.262 282.384 964.134 281.92 963.334 280.992C962.55 280.048 962.158 278.704 962.158 276.96V270.096H959.278V267.6H962.158V263.856H964.798V267.6H970.798V270.096H964.798V276.96C964.798 277.936 964.966 278.672 965.302 279.168C965.654 279.648 966.158 279.888 966.814 279.888C967.534 279.888 968.11 279.648 968.542 279.168C968.974 278.688 969.278 277.952 969.454 276.96H971.806C971.742 278.704 971.27 280.048 970.39 280.992C969.51 281.92 968.286 282.384 966.718 282.384Z" fill="black"/>
<path d="M822.466 279.571C825.494 276.844 829.126 276.051 833.013 276.477C836.853 276.898 840.995 278.509 845.209 280.637C849.434 282.77 853.836 285.478 858.189 288.16C862.562 290.855 866.887 293.525 871.03 295.645C875.184 297.769 879.057 299.287 882.517 299.738C885.937 300.185 888.881 299.583 891.338 297.545C893.838 295.471 896.001 291.772 897.515 285.669C897.681 284.999 898.359 284.591 899.028 284.757C899.699 284.923 900.107 285.602 899.941 286.272C898.362 292.632 896.011 296.916 892.934 299.469C889.813 302.058 886.117 302.729 882.193 302.217C878.308 301.71 874.132 300.04 869.892 297.871C865.642 295.698 861.229 292.97 856.877 290.288C852.505 287.594 848.196 284.945 844.082 282.868C839.958 280.786 836.134 279.334 832.74 278.962C829.393 278.595 826.523 279.281 824.139 281.429C822.124 283.244 820.354 286.195 819.005 290.72L825.835 286.395C826.418 286.025 827.19 286.199 827.56 286.782C827.929 287.366 827.756 288.138 827.173 288.507L817.669 294.527C817.086 294.896 816.314 294.723 815.944 294.14L809.924 284.636C809.555 284.053 809.728 283.28 810.312 282.91C810.895 282.541 811.667 282.715 812.036 283.298L816.507 290.355C817.947 285.368 819.942 281.845 822.466 279.571Z" fill="black"/>
<path d="M776.879 348.748C777.105 350.915 778.185 352.904 779.88 354.277C781.574 355.649 783.744 356.292 785.914 356.066C788.084 355.841 790.076 354.764 791.451 353.072L813.884 325.454C816.174 322.634 817.248 319.021 816.871 315.409C816.494 311.798 814.697 308.484 811.874 306.197C809.051 303.909 805.432 302.836 801.816 303.212C798.2 303.588 794.881 305.385 792.591 308.204L770.157 335.823C769.204 336.996 767.477 337.176 766.302 336.224C765.128 335.272 764.948 333.549 765.9 332.376L788.334 304.757C791.54 300.81 796.186 298.296 801.248 297.769C806.309 297.242 811.373 298.746 815.325 301.947C819.278 305.149 821.795 309.787 822.323 314.842C822.851 319.897 821.345 324.954 818.139 328.9L795.705 356.519C793.415 359.338 790.098 361.135 786.482 361.511C782.867 361.887 779.251 360.812 776.428 358.526C773.605 356.239 771.806 352.926 771.429 349.315C771.053 345.705 772.129 342.093 774.418 339.274L774.418 339.273L796.879 311.651L796.881 311.653C798.255 309.962 800.243 308.885 802.412 308.659C804.581 308.434 806.75 309.077 808.444 310.449C810.138 311.821 811.216 313.809 811.442 315.975C811.668 318.141 811.024 320.308 809.65 321.999L809.65 322.001L788.921 347.488C787.967 348.661 786.242 348.84 785.068 347.887C783.893 346.935 783.714 345.21 784.668 344.037L805.395 318.55L805.397 318.552C805.854 317.988 806.067 317.264 805.992 316.542C805.917 315.82 805.557 315.156 804.993 314.698C804.428 314.241 803.703 314.027 802.98 314.102C802.256 314.177 801.592 314.536 801.134 315.1L801.134 315.102L778.672 342.723C777.299 344.415 776.653 346.582 776.879 348.748Z" fill="black"/>
<defs>
<clipPath id="clip0_138_2">
<rect width="65.7532" height="65.6753" fill="white" transform="matrix(-0.969809 0.243866 -0.244484 -0.969653 614.939 517.569)"/>
</clipPath>
</defs>
</svg>
