<svg width="782" height="248" viewBox="0 0 782 248" fill="none" xmlns="http://www.w3.org/2000/svg">
<path d="M695.165 223.108H693.098C688.964 223.108 687.086 222.357 685.958 219.168L677.692 197.403C677.504 196.84 677.316 196.277 677.316 195.902C677.316 193.087 681.073 192.712 683.328 192.712C694.413 192.524 699.674 187.271 699.674 182.768C699.674 180.329 697.231 177.326 694.601 173.949L689.528 168.32C681.261 158.939 677.879 150.871 677.879 143.741C677.879 122.539 708.504 111.281 733.117 111.281C740.444 111.281 742.323 112.032 743.638 115.409L752.093 137.174C752.468 137.924 752.468 138.487 752.468 139.05C752.468 141.114 750.402 141.865 747.959 141.865H747.208C735.935 141.865 731.614 145.617 731.614 149.37C731.614 152.559 734.432 156.124 741.571 164.005C750.214 173.386 753.971 181.83 753.971 188.959C753.971 211.1 720.341 223.108 695.165 223.108Z" fill="black"/>
<path d="M675.892 170.805L657.852 188.866C655.266 191.387 652.96 192.422 650.635 191.676C648.846 191.103 637.242 184.23 630.996 172.966C620.144 174.808 609.794 173.855 600.671 170.93C570.796 161.354 552.386 130.229 561.631 101.466C568.522 80.0278 593.662 53.9957 629.082 65.3501C638.027 68.2174 646.161 72.9925 652.161 78.2661C653.637 77.3596 655.419 77.3398 657.566 78.0279L658.46 78.3146L688.547 90.9152C693.083 92.7635 693.589 95.4874 692.9 97.6312L692.613 98.5244C684.883 113.979 677.383 128.719 673.593 140.509C670.147 151.228 669.646 159.541 674.394 164.413C675.896 165.88 677.519 167.583 676.945 169.369C676.83 169.727 676.479 170.205 675.892 170.805ZM627.668 140.961C628.625 136.144 629.875 131.027 631.655 125.489C633.148 120.844 634.877 116.078 636.958 110.833C635.959 106.572 631.933 102.523 626.745 100.86C615.475 97.2469 605.711 106.137 602.783 115.249C599.567 125.253 603.787 136.065 615.415 139.792C618.814 140.882 622.98 141.429 627.668 140.961Z" fill="black"/>
<path d="M494.603 212.819L493.158 194.472C492.913 191.751 494.826 189.406 496.755 188.663L497.456 188.393C498.751 188.096 499.978 187.623 501.03 187.218C511.548 183.169 518.488 175.067 517.348 165.854C514.986 148.263 499.895 102.393 488.147 70.9207C486.768 66.8267 488.601 65.3164 490.705 64.5065C490.88 64.439 520.98 54.2575 524.904 52.9476C527.844 52.2178 530.165 53.5361 531.111 55.987C531.585 57.2125 555.68 127.969 560.289 155.554C565.305 186.803 547.069 205.286 526.383 213.251C517.268 216.761 507.584 218.277 499.18 217.893C496.913 217.76 495.576 215.862 494.968 214.287C494.765 213.761 494.563 213.236 494.603 212.819ZM522.623 17.8307C528.097 32.0111 520.988 48.0204 506.789 53.4877C492.414 59.0224 476.383 51.9228 470.908 37.7423C465.366 23.3868 472.475 7.37748 486.85 1.84273C501.05 -3.62453 517.081 3.47514 522.623 17.8307Z" fill="black"/>
<path d="M435.321 204.891L433.186 204.169C392.79 190.506 381.845 156.099 391.006 129.087C399.624 103.674 426.638 83.0956 467.211 96.8183C511.343 111.745 499.981 151.681 497.993 157.546C495.22 165.721 489.549 171.33 477.844 171.333C468.516 171.348 454.685 168.849 445.311 166.075C442.464 165.112 441.996 163.567 442.007 161.194C441.86 154.607 442.397 141.912 442.638 141.201C443.301 139.246 445.026 138.839 447.52 139.088C457.497 140.086 458.863 140.151 459.707 137.663C460.249 136.064 458.797 129.234 451.323 126.706C442.781 123.817 433.131 128.873 429.395 139.892C425.116 152.509 429.548 169.856 451.792 177.379C453.038 177.801 454.461 178.282 455.767 178.526L456.123 178.646C458.614 179.489 461.097 182.111 460.073 185.132C459.47 186.91 450.745 197.429 446.027 202.569C443.639 204.931 440.482 206.636 435.321 204.891Z" fill="black"/>
<path d="M340.804 187.146H321.828C318.071 187.146 314.689 186.396 312.622 182.831L269.597 101.4C268.658 99.5237 268.282 98.0227 268.282 96.7093C268.282 94.6454 269.409 93.332 271.476 92.3938C275.985 90.3299 300.598 80.198 304.543 80.198C307.361 80.198 309.24 81.5114 310.18 83.3876L331.222 129.732C331.598 130.67 332.162 131.045 332.538 131.045C333.101 131.045 333.477 130.67 334.041 129.544C340.616 114.346 350.95 86.765 352.265 83.5753C353.392 81.1361 355.271 80.0103 357.714 80.0103C359.029 80.0103 360.344 80.198 361.847 80.7609L387.023 88.4536C391.344 89.767 393.035 91.6433 393.035 94.2701C393.035 97.2722 372.368 164.443 349.259 184.332C347.38 185.833 344.186 187.146 340.804 187.146Z" fill="black"/>
<path d="M209.804 191.837H207.737C203.604 191.837 201.725 191.086 200.598 187.897L192.331 166.132C192.143 165.569 191.955 165.006 191.955 164.631C191.955 161.816 195.713 161.441 197.968 161.441C209.053 161.254 214.313 156 214.313 151.497C214.313 149.058 211.871 146.056 209.24 142.678L204.168 137.049C195.901 127.668 192.519 119.6 192.519 112.47C192.519 91.2681 223.144 80.0103 247.756 80.0103C255.083 80.0103 256.962 80.7609 258.277 84.1382L266.732 105.903C267.108 106.654 267.108 107.216 267.108 107.779C267.108 109.843 265.041 110.594 262.599 110.594H261.847C250.574 110.594 246.253 114.346 246.253 118.099C246.253 121.289 249.071 124.854 256.211 132.734C264.853 142.115 268.611 150.559 268.611 157.689C268.611 179.829 234.98 191.837 209.804 191.837Z" fill="black"/>
<path d="M183.945 166.192L168.115 186.212C165.837 189.014 163.667 190.308 161.271 189.835C159.427 189.472 147.107 183.983 139.6 173.515C129.033 176.596 118.643 176.843 109.243 174.99C78.4602 168.922 56.5746 140.128 62.4323 110.491C66.7983 88.4021 88.7603 59.6452 125.257 66.8395C134.473 68.6562 143.105 72.4614 149.675 77.0078C151.035 75.9373 152.803 75.712 155.015 76.148L155.937 76.3297L187.279 85.3767C191.999 86.6896 192.816 89.3369 192.38 91.5459L192.198 92.4662C186.306 108.709 180.56 124.215 178.159 136.364C175.976 147.408 176.439 155.723 181.719 160.015C183.38 161.299 185.19 162.803 184.826 164.644C184.753 165.012 184.46 165.528 183.945 166.192ZM132.594 142.108C132.987 137.213 133.637 131.986 134.765 126.28C135.711 121.494 136.878 116.56 138.338 111.11C136.854 106.993 132.386 103.435 127.041 102.381C115.429 100.092 106.758 110.049 104.902 119.437C102.865 129.745 108.307 139.998 120.288 142.36C123.79 143.05 127.991 143.113 132.594 142.108Z" fill="black"/>
<path d="M57.7698 184.068L20.2129 188.014C18.1575 188.23 16.299 186.727 16.0828 184.674L0.0243541 32.223C-0.211509 29.9839 1.29325 28.1278 3.3486 27.9119L40.9055 23.9665C42.9609 23.7506 44.8194 25.2533 45.0553 27.4925L61.1137 179.944C61.3299 181.996 59.8252 183.853 57.7698 184.068Z" fill="black"/>
<path d="M200.878 34.3816C201.673 33.0965 203.361 32.6982 204.648 33.4917C205.936 34.2858 206.335 35.9729 205.54 37.2587L194.762 54.6828L212.211 65.4458C213.499 66.24 213.898 67.9271 213.103 69.2128C212.308 70.4981 210.62 70.8966 209.333 70.1027L189.551 57.9014C188.265 57.1071 187.866 55.4217 188.66 54.1362L200.878 34.3816ZM222.21 29.3463C223.005 28.0613 224.693 27.6628 225.98 28.4564L245.762 40.6577C247.048 41.4518 247.447 43.1374 246.653 44.4228L234.435 64.1775C233.64 65.4628 231.952 65.8611 230.665 65.0674C229.377 64.2733 228.978 62.5862 229.773 61.3004L240.549 43.8749L223.102 33.1132C221.814 32.3191 221.415 30.632 222.21 29.3463Z" fill="black"/>
<path d="M93.0694 219.74L87.7491 218.43C86.338 218.083 84.8453 218.31 83.6016 219.06C82.3583 219.811 81.4652 221.025 81.1175 222.434C80.7698 223.843 80.9959 225.331 81.7473 226.573C82.4992 227.815 83.7153 228.709 85.1264 229.056C86.5374 229.404 88.0285 229.176 89.2721 228.426C90.5158 227.675 91.4102 226.462 91.758 225.053L93.0694 219.74ZM123.682 232.911C124.029 231.502 123.802 230.013 123.05 228.771C122.298 227.529 121.084 226.635 119.673 226.288L114.352 224.979L113.041 230.292C112.693 231.701 112.921 233.19 113.673 234.432C114.425 235.674 115.639 236.567 117.05 236.914C118.461 237.262 119.952 237.034 121.196 236.283C122.439 235.533 123.334 234.32 123.682 232.911ZM99.701 215.736L110.343 218.356L112.967 207.728L102.324 205.108L99.701 215.736ZM99.6266 193.172C99.9744 191.763 99.7472 190.272 98.9954 189.03C98.2435 187.789 97.0283 186.897 95.6176 186.55C94.2065 186.202 92.7143 186.427 91.4705 187.178C90.2268 187.929 89.3338 189.144 88.986 190.553C88.6384 191.962 88.8643 193.451 89.6158 194.693C90.3677 195.935 91.5838 196.829 92.9949 197.176L98.3152 198.485L99.6266 193.172ZM131.55 201.03C131.898 199.621 131.671 198.13 130.919 196.888C130.167 195.647 128.952 194.755 127.541 194.408C126.13 194.06 124.64 194.286 123.396 195.037C122.152 195.787 121.257 197.002 120.91 198.411L119.598 203.724L124.918 205.034C126.33 205.381 127.82 205.154 129.064 204.403C130.308 203.652 131.202 202.439 131.55 201.03ZM136.87 202.34C136.175 205.158 134.387 207.586 131.9 209.088C129.412 210.589 126.429 211.042 123.607 210.347L118.287 209.037L115.664 219.665L120.984 220.975C123.806 221.67 126.237 223.455 127.741 225.939C129.245 228.423 129.697 231.402 129.002 234.22C128.306 237.039 126.519 239.466 124.031 240.968C121.544 242.47 118.561 242.922 115.739 242.227C112.916 241.533 110.486 239.748 108.982 237.264C107.478 234.779 107.025 231.8 107.721 228.982L109.032 223.669L98.3896 221.049L97.0783 226.362C96.3827 229.181 94.5953 231.608 92.1079 233.11C89.6205 234.612 86.6372 235.064 83.8151 234.369C80.9929 233.675 78.562 231.89 77.0582 229.406C75.5545 226.922 75.0998 223.942 75.7954 221.124C76.491 218.305 78.2802 215.878 80.7677 214.376C83.2551 212.875 86.2383 212.422 89.0605 213.117L94.3807 214.427L97.0039 203.799L91.6836 202.489C88.8615 201.794 86.4305 200.009 84.9267 197.525C83.4231 195.041 82.9684 192.061 83.6639 189.243C84.3595 186.425 86.1487 183.998 88.6362 182.496C91.1237 180.994 94.1072 180.54 96.9294 181.235C99.7515 181.929 102.182 183.716 103.686 186.2C105.189 188.684 105.643 191.664 104.947 194.482L103.636 199.795L114.278 202.415L115.589 197.102C116.285 194.283 118.072 191.856 120.56 190.354C123.047 188.852 126.031 188.398 128.853 189.093C131.675 189.787 134.106 191.574 135.609 194.058C137.113 196.542 137.566 199.522 136.87 202.34Z" fill="black"/>
<path d="M82.9802 62.152V51.2077C82.9802 49.6965 84.2077 48.4707 85.7209 48.4707C87.2341 48.4707 88.4616 49.6965 88.4616 51.2077V62.152C88.4616 63.6632 87.2341 64.889 85.7209 64.889C84.2077 64.889 82.9802 63.6632 82.9802 62.152ZM72.1665 44.4568C73.2365 43.3882 74.9705 43.3882 76.0405 44.4568C77.1105 45.5254 77.1105 47.2571 76.0405 48.3257L68.2867 56.0691C67.2167 57.1377 65.4826 57.1377 64.4126 56.0691C63.3426 55.0005 63.3426 53.2688 64.4126 52.2002L72.1665 44.4568ZM95.4013 44.4568C96.4713 43.3882 98.2053 43.3882 99.2753 44.4568L107.029 52.2002C108.099 53.2688 108.099 55.0005 107.029 56.0691C105.959 57.1377 104.225 57.1377 103.155 56.0691L95.4013 48.3257C94.3313 47.2571 94.3313 45.5254 95.4013 44.4568ZM69.2805 32.0525C70.7937 32.0525 72.0212 33.2783 72.0212 34.7895C72.0212 36.3007 70.7937 37.5265 69.2805 37.5265H58.3215C56.8083 37.5265 55.5808 36.3007 55.5808 34.7895C55.5808 33.2783 56.8083 32.0525 58.3215 32.0525H69.2805ZM113.12 32.0525C114.633 32.0525 115.861 33.2783 115.861 34.7895C115.861 36.3007 114.633 37.5265 113.12 37.5265H102.161C100.648 37.5265 99.4206 36.3007 99.4206 34.7895C99.4206 33.2783 100.648 32.0525 102.161 32.0525H113.12ZM64.4126 13.5099C65.4826 12.4413 67.2167 12.4413 68.2867 13.5099L76.0405 21.2533C77.1105 22.3219 77.1105 24.0536 76.0405 25.1221C74.9705 26.1907 73.2365 26.1907 72.1665 25.1221L64.4126 17.3787C63.3426 16.3101 63.3426 14.5784 64.4126 13.5099ZM103.155 13.5099C104.225 12.4413 105.959 12.4413 107.029 13.5099C108.099 14.5784 108.099 16.3101 107.029 17.3787L99.2753 25.1221C98.2053 26.1907 96.4713 26.1907 95.4013 25.1221C94.3313 24.0536 94.3313 22.3219 95.4013 21.2533L103.155 13.5099ZM82.9802 18.3712V7.42696C82.9802 5.91577 84.2077 4.68994 85.7209 4.68994C87.2341 4.68994 88.4616 5.91577 88.4616 7.42696V18.3712C88.4616 19.8824 87.2341 21.1082 85.7209 21.1082C84.2077 21.1082 82.9802 19.8824 82.9802 18.3712Z" fill="black"/>
<path d="M586.953 174.846C587.738 174.062 588.919 173.83 589.944 174.256L636.442 193.6C637.494 194.038 638.164 195.082 638.126 196.219C638.087 197.357 637.347 198.351 636.268 198.718L620.191 204.169L634.667 218.627C635.737 219.695 635.737 221.427 634.667 222.496C633.597 223.564 631.863 223.564 630.793 222.496L616.315 208.039L610.857 224.095C610.49 225.173 609.494 225.912 608.355 225.95C607.216 225.989 606.171 225.319 605.733 224.269L586.362 177.833C585.935 176.81 586.168 175.63 586.953 174.846ZM607.999 215.474L612.544 202.115L612.665 201.821C612.98 201.157 613.553 200.642 614.259 200.403L627.635 195.864L593.977 181.86L607.999 215.474Z" fill="black"/>
</svg>
